<svg xmlns="http://www.w3.org/2000/svg" width="297.012" height="143" viewBox="0 0 297.012 143">
  <g id="Group_346" data-name="Group 346" transform="translate(77.216 -3046.713)">
    <path id="Rectangle_Copy_6" data-name="Rectangle Copy 6" d="M142.759,142.759,0,0H142.759Z" transform="translate(-77.216 3189.713) rotate(-90)" fill="#d8d8d8" opacity="0.02"/>
    <g id="Rectangle_39" data-name="Rectangle 39" transform="translate(77.037 3046.713)" fill="#fff" stroke="#707070" stroke-width="1" opacity="0.02">
      <path d="M0,0H122.759a20,20,0,0,1,20,20V122.759a20,20,0,0,1-20,20H0a0,0,0,0,1,0,0V0A0,0,0,0,1,0,0Z" stroke="none"/>
      <path d="M1,.5H122.759a19.5,19.5,0,0,1,19.5,19.5V122.759a19.5,19.5,0,0,1-19.5,19.5H1a.5.5,0,0,1-.5-.5V1A.5.5,0,0,1,1,.5Z" fill="none"/>
    </g>
  </g>
</svg>
