<svg xmlns="http://www.w3.org/2000/svg" width="16.2" height="16.2" viewBox="0 0 16.2 16.2">
  <g id="Explore_Copy_5" data-name="Explore Copy 5" opacity="1">
    <g id="Oval" transform="translate(0 0)" fill="none" stroke="#fff" stroke-miterlimit="10" stroke-width="1.8">
      <circle cx="8.1" cy="8.1" r="8.1" stroke="none"/>
      <circle cx="8.1" cy="8.1" r="7.2" fill="none"/>
    </g>
    <g id="Group" transform="translate(3 2.4)">
      <path id="Triangle" d="M.918,2.328a.6.6,0,0,1,1.164,0l.732,2.926A.6.6,0,0,1,2.232,6H.768a.6.6,0,0,1-.582-.746Z" transform="translate(8.021 0.418) rotate(45)" fill="none" stroke="#fff" stroke-miterlimit="10" stroke-width="1.2"/>
      <path id="Triangle-2" data-name="Triangle" d="M.918,2.328a.6.6,0,0,1,1.164,0l.732,2.926A.6.6,0,0,1,2.232,6H.768a.6.6,0,0,1-.582-.746Z" transform="translate(2.239 10.493) rotate(-135)" fill="none" stroke="#fff" stroke-miterlimit="10" stroke-width="1.2"/>
    </g>
  </g>
</svg>
