<svg xmlns="http://www.w3.org/2000/svg" width="8.291" height="9.495" viewBox="0 0 8.291 9.495">
  <g id="Group_26" data-name="Group 26" transform="translate(0 0)">
    <path id="Shape" d="M.1,8.205a.32.32,0,0,1-.09-.291l.46-2.52a.31.31,0,0,1,.09-.169L5.5.285a.964.964,0,0,1,1.37,0l1.14,1.149a.967.967,0,0,1,0,1.371l-4.94,4.94a.328.328,0,0,1-.17.09L.386,8.3A.318.318,0,0,1,.33,8.3.335.335,0,0,1,.1,8.205Z" transform="translate(0 0)" fill="#ffffff"/>
    <path id="Path" d="M7.44,0H.12A.122.122,0,0,0,0,.12v.4A.122.122,0,0,0,.12.64H7.44A.122.122,0,0,0,7.56.52V.12A.115.115,0,0,0,7.44,0Z" transform="translate(0.006 8.855)" fill="#ffffff"/>
  </g>
</svg>
