<svg xmlns="http://www.w3.org/2000/svg" xmlns:xlink="http://www.w3.org/1999/xlink" width="380" height="344" viewBox="0 0 380 344">
  <defs>
    <clipPath id="clip-path">
      <circle id="Ellipse_9" data-name="Ellipse 9" cx="64.348" cy="64.348" r="64.348" fill="none"/>
    </clipPath>
  </defs>
  <g id="Group_4" data-name="Group 4" transform="translate(-48 -149.945)">
    <g id="Shadow--inject-214" transform="translate(72.617 474.014)">
      <ellipse id="path--inject-214" cx="170.543" cy="9.965" rx="170.543" ry="9.965" transform="translate(0)" fill="#a0bdff"/>
    </g>
    <g id="Layer_2" data-name="Layer 2" transform="translate(48 149.945)">
      <g id="Background_Complete" data-name="Background Complete">
        <path id="Path_1" data-name="Path 1" d="M179.658,255.583H5.151A5.16,5.16,0,0,1,0,250.422V5.115A5.16,5.16,0,0,1,5.151,0H179.658a5.16,5.16,0,0,1,5.16,5.16h0V250.422A5.16,5.16,0,0,1,179.658,255.583ZM5.151.181A4.935,4.935,0,0,0,.226,5.115V250.422a4.934,4.934,0,0,0,4.925,4.934H179.658a4.953,4.953,0,0,0,4.934-4.934V5.115A4.953,4.953,0,0,0,179.658.181Z" fill="#3770f6"/>
        <path id="Path_2" data-name="Path 2" d="M395.966,255.583H221.45a5.179,5.179,0,0,1-5.16-5.16V5.115A5.169,5.169,0,0,1,221.45,0H395.966a5.16,5.16,0,0,1,5.142,5.115V250.422A5.151,5.151,0,0,1,395.966,255.583ZM221.45.181a4.953,4.953,0,0,0-4.935,4.935V250.422a4.953,4.953,0,0,0,4.935,4.934H395.966a4.952,4.952,0,0,0,4.934-4.934V5.115A4.953,4.953,0,0,0,395.966.181Z" transform="translate(-21.108)" fill="#3770f6"/>
        <path id="Path_3" data-name="Path 3" d="M7.984,40.514H94.962c11.134,0,13.827-15.6,3.3-19.259l-.4-.136c11.631-9.7-13.909-30.149-41.645-1.808,2.16-9.444-22.495-6.028-30.041,6.85C23.5,17.64-.014,32.372,7.984,40.514Z" transform="translate(-0.609 -0.469)" fill="#a0bdff"/>
        <path id="Path_4" data-name="Path 4" d="M254.625,34.919h49.137s11.532-4.338,10.041-15.834-18.889-1.925-18.889-1.925,5.26-16.033-11.586-11.487a24.926,24.926,0,0,0-18.491,20.452S242.7,22.267,254.625,34.919Z" transform="translate(-24.375 -0.468)" fill="#a0bdff" opacity="0.4"/>
        <path id="Path_5" data-name="Path 5" d="M359.458,233.794l-28.9-.108a4.244,4.244,0,0,0-4.244,4.244v10.194a4.253,4.253,0,0,1-4.253,4.253H279.631a4.262,4.262,0,0,1-4.262-4.244V210.7a4.235,4.235,0,0,0-4.253-4.226h-9.021a4.253,4.253,0,0,1-4.253-4.253V181.794a4.235,4.235,0,0,0-4.244-4.244h-14.81a4.235,4.235,0,0,0-4.244,4.244v6.014a4.253,4.253,0,0,1-4.253,4.253h-1.382a4.235,4.235,0,0,1-4.244-4.244v-22.23a4.253,4.253,0,0,0-4.253-4.253H205.755a4.262,4.262,0,0,0-4.253,4.253v22.267a4.244,4.244,0,0,1-4.244,4.244h-4.569a4.244,4.244,0,0,1-4.244-4.244V142.967h.045V120.493h-.9v13.842c-.09-.117-.163-.235-.262-.343L153.6,114.624c-.713-.777-1.12,0-1.12-1.038V85.865L150.119,84.2l-42.1-30.194V42h-.9V53.368l-.172-.126v134.62a4.253,4.253,0,0,1-4.253,4.253H97.157a4.244,4.244,0,0,1-4.253-4.244L91.577,137.6a3.386,3.386,0,0,0-.334-1.391l-8.236-17.156h-.614V99.59a3.431,3.431,0,0,0-3.44-3.413H77.3V82.389h-.9V96.177h-.9a3.431,3.431,0,0,0-3.44,3.44v.9h-3.82v-.9a3.431,3.431,0,0,0-3.44-3.44H63.339V82.389h-.9V96.177H61.371a3.431,3.431,0,0,0-3.441,3.44v19.4h-.614l-8.245,17.156a3.386,3.386,0,0,0-.334,1.391L47.383,187.78a4.253,4.253,0,0,1-4.253,4.253H35.355a4.235,4.235,0,0,0-4.244,4.244v5.851a4.235,4.235,0,0,1-4.244,4.244H21.313a4.226,4.226,0,0,0-4.19,3.576l-14.791,77.7a3.981,3.981,0,0,0-.081.8,4.262,4.262,0,0,0,4.289,4.244h352.9C360.306,292.693,359.458,233.794,359.458,233.794Z" transform="translate(-0.217 -4.042)" fill="#3770f6"/>
        <path id="Path_6" data-name="Path 6" d="M357.868,51.592c-.822-6.326-6.326-4.853-6.326-4.853s2.9-8.83-6.326-6.326a13.7,13.7,0,0,0-6.643,3.9,10.592,10.592,0,0,0,.117,14.46c2.711,2.784,6.579,6.661,13.773,2.711C354.37,60.485,358.69,57.918,357.868,51.592Z" transform="translate(-32.608 -3.846)" fill="#a0bdff" opacity="0.6"/>
        <path id="Path_7" data-name="Path 7" d="M364.8,84.373a4.184,4.184,0,1,1-1.222-2.965A4.193,4.193,0,0,1,364.8,84.373Z" transform="translate(-34.594 -7.771)" fill="#f5f5f5"/>
        <rect id="Rectangle_1" data-name="Rectangle 1" width="23.769" height="44.13" transform="translate(318.427 95.229)" fill="#ebebeb"/>
        <rect id="Rectangle_2" data-name="Rectangle 2" width="23.769" height="44.13" transform="translate(311.802 95.229)" fill="#f5f5f5"/>
        <rect id="Rectangle_3" data-name="Rectangle 3" width="35.463" height="9.616" transform="translate(308.685 85.629)" fill="#f5f5f5"/>
        <rect id="Rectangle_4" data-name="Rectangle 4" width="5.459" height="9.616" transform="translate(338.689 85.629)" fill="#ebebeb"/>
        <rect id="Rectangle_5" data-name="Rectangle 5" width="161.212" height="119.657" transform="translate(202.376 169.093)" fill="#a3a3a3"/>
        <path id="Path_8" data-name="Path 8" d="M305.238,86.44l-91.2,91.2h182.4Z" transform="translate(-20.892 -8.401)" fill="#b8b8b8"/>
        <rect id="Rectangle_6" data-name="Rectangle 6" width="182.405" height="10.52" transform="translate(193.148 169.19)" fill="#e0e0e0"/>
        <path id="Path_9" data-name="Path 9" d="M33.2,112.71h0a1.7,1.7,0,0,0-1.69,1.7V318.243H34.9V114.382a1.69,1.69,0,0,0-1.7-1.672Z" transform="translate(-3.033 -11.073)" fill="#e0e0e0"/>
        <circle id="Ellipse_1" data-name="Ellipse 1" cx="22.061" cy="22.061" r="22.061" transform="translate(10.231 108.313)" fill="#e0e0e0"/>
        <circle id="Ellipse_2" data-name="Ellipse 2" cx="22.061" cy="22.061" r="22.061" transform="translate(12.951 108.313)" fill="#fafafa"/>
        <path id="Path_10" data-name="Path 10" d="M51.125,139.8v-.063a1.988,1.988,0,0,0-1.934-1.808H23.542a1.654,1.654,0,0,0-1.663,1.808h.334l.515,5.838h-.343l.389,4.437h4.88s-.072-.524-.1-.813a2.35,2.35,0,0,1,2.377-2.6,2.9,2.9,0,0,1,2.829,2.6,5.946,5.946,0,0,0,.1.813h8.134a7.068,7.068,0,0,0-.045-.813,2.35,2.35,0,0,1,2.377-2.6,2.9,2.9,0,0,1,2.829,2.6v.813h5.856l-.624-7.113h-.66l-.28-3.1Zm-25.016,9.291H23.66l-.822-9.291H25.3Zm3.76-6.164H26.7l-.271-3.163h3.163Zm5.1,0H31.793l-.28-3.163h3.172Zm5.1,0H36.891l-.271-3.163h3.163Zm5.1,0H42l-.28-3.163H44.88Zm4.718,6.164H47.419l-.813-9.291H49.1Z" transform="translate(-2.105 -13.37)" fill="#e0e0e0"/>
        <path id="Path_11" data-name="Path 11" d="M30.689,148.18a1.862,1.862,0,0,0-1.88,2.061A2.3,2.3,0,0,0,31.05,152.3a1.807,1.807,0,0,0,1.88-2.061A2.3,2.3,0,0,0,30.689,148.18Zm.271,3.1a1.157,1.157,0,0,1-1.075-1.039.9.9,0,0,1,.9-1.021,1.148,1.148,0,0,1,1.13,1.021.9.9,0,0,1-.958,1.039Z" transform="translate(-2.772 -14.361)" fill="#e0e0e0"/>
        <path id="Path_12" data-name="Path 12" d="M45.449,148.18a1.862,1.862,0,0,0-1.88,2.061A2.3,2.3,0,0,0,45.81,152.3a1.853,1.853,0,0,0,1.889-2.061A2.3,2.3,0,0,0,45.449,148.18Zm.271,3.1a1.148,1.148,0,0,1-1.112-1.039.9.9,0,0,1,.9-1.021,1.148,1.148,0,0,1,1.157,1.021.9.9,0,0,1-.9,1.039Z" transform="translate(-4.192 -14.361)" fill="#e0e0e0"/>
        <path id="Path_13" data-name="Path 13" d="M64.56,231v15.834h72.4V231Zm7.357,13.439H66.612V233.521h5.305Zm12.653-5.585h-5.35v-5.305h5.314Zm12.653,0H91.835v-5.305h5.314Zm12.653,0h-5.423v-5.305h5.314Zm12.653,0h-5.305v-5.305h5.305Zm12.653,5.585h-5.314V233.521h5.314Z" transform="translate(-6.269 -22.394)" fill="#e6e6e6"/>
        <rect id="Rectangle_7" data-name="Rectangle 7" width="10.854" height="1.437" transform="translate(67.403 207.151)" fill="#e6e6e6"/>
        <rect id="Rectangle_8" data-name="Rectangle 8" width="10.854" height="1.437" transform="translate(110.722 207.151)" fill="#e6e6e6"/>
        <path id="Path_14" data-name="Path 14" d="M77.776,251.064a2.413,2.413,0,1,1-2.4-2.4,2.413,2.413,0,0,1,2.4,2.4Z" transform="translate(-7.021 -24.099)" fill="#e6e6e6"/>
        <path id="Path_15" data-name="Path 15" d="M87.846,251.064a2.413,2.413,0,1,1-2.4-2.4A2.413,2.413,0,0,1,87.846,251.064Z" transform="translate(-8.048 -24.099)" fill="#e6e6e6"/>
        <path id="Path_16" data-name="Path 16" d="M125.726,251.064a2.413,2.413,0,1,1-2.4-2.4A2.413,2.413,0,0,1,125.726,251.064Z" transform="translate(-11.721 -24.099)" fill="#e6e6e6"/>
        <path id="Path_17" data-name="Path 17" d="M135.8,251.064a2.4,2.4,0,1,1-2.4-2.4A2.4,2.4,0,0,1,135.8,251.064Z" transform="translate(-12.699 -24.099)" fill="#e6e6e6"/>
        <path id="Path_18" data-name="Path 18" d="M145.21,231v15.834h72.4V231Zm7.357,13.439h-5.305V233.521h5.305Zm12.653-5.585h-5.314v-5.305h5.314Zm12.653,0h-5.314v-5.305h5.314Zm12.653,0H185.21v-5.305h5.314Zm12.653,0h-5.305v-5.305h5.305Zm12.653,5.585h-5.305V233.521h5.305Z" transform="translate(-14.1 -22.394)" fill="#e6e6e6"/>
        <rect id="Rectangle_9" data-name="Rectangle 9" width="10.854" height="1.437" transform="translate(140.234 207.151)" fill="#e6e6e6"/>
        <rect id="Rectangle_10" data-name="Rectangle 10" width="10.854" height="1.437" transform="translate(183.553 207.151)" fill="#e6e6e6"/>
        <path id="Path_19" data-name="Path 19" d="M158.426,251.064a2.413,2.413,0,1,1-2.413-2.4A2.413,2.413,0,0,1,158.426,251.064Z" transform="translate(-14.891 -24.099)" fill="#e6e6e6"/>
        <path id="Path_20" data-name="Path 20" d="M168.486,251.064a2.413,2.413,0,1,1-2.4-2.4A2.413,2.413,0,0,1,168.486,251.064Z" transform="translate(-15.866 -24.099)" fill="#e6e6e6"/>
        <path id="Path_21" data-name="Path 21" d="M206.376,251.064a2.413,2.413,0,1,1-2.4-2.4,2.413,2.413,0,0,1,2.4,2.4Z" transform="translate(-19.539 -24.099)" fill="#e6e6e6"/>
        <path id="Path_22" data-name="Path 22" d="M216.488,251.064a2.4,2.4,0,1,1-2.4-2.4A2.4,2.4,0,0,1,216.488,251.064Z" transform="translate(-20.521 -24.099)" fill="#e6e6e6"/>
      </g>
      <g id="Character_1" data-name="Character 1" transform="translate(22.034 79.446)">
        <path id="Path_23" data-name="Path 23" d="M68.2,200.842s6.86,47.9,18.238,71.026c11.839,24.058,35.717,62.92,35.717,62.92l6.118-2.856a290.735,290.735,0,0,0-26.977-65.4c-7.745-28.016-11.658-74.6-11.658-74.6Z" transform="translate(-28.597 -98.145)" fill="#ffb573"/>
        <path id="Path_24" data-name="Path 24" d="M68.2,200.842s6.86,47.9,18.238,71.026c11.839,24.058,35.717,62.92,35.717,62.92l6.118-2.856a290.735,290.735,0,0,0-26.977-65.4c-7.745-28.016-11.658-74.6-11.658-74.6Z" transform="translate(-28.597 -98.145)" fill="#263238" opacity="0.8"/>
        <path id="Path_25" data-name="Path 25" d="M67.076,193.79s-10.9,46.345-10.348,72.084c.578,26.769,5.784,72.084,5.784,72.084h6.76a290.691,290.691,0,0,0,3.19-70.674c18.509-37.9,23.245-70.493,23.245-70.493Z" transform="translate(-27.491 -98.323)" fill="#ffb573"/>
        <path id="Path_26" data-name="Path 26" d="M67.076,193.79s-10.9,46.345-10.348,72.084c.578,26.769,5.784,72.084,5.784,72.084h6.76a290.691,290.691,0,0,0,3.19-70.674c18.509-37.9,23.245-70.493,23.245-70.493Z" transform="translate(-27.491 -98.323)" fill="#263238" opacity="0.8"/>
        <path id="Path_27" data-name="Path 27" d="M63.685,183.29c-2.341,2.847-5.54,4.844-8.676,6.787l-6.832,4.239c-2.341,1.455-4.853,2.955-7.61,2.919s-5.2-5.1-4.519-6.109c3.859-5.892,13-12.038,16.069-16.512a20,20,0,0,0,1.41-3.461c0-1.889.208-9.119.208-9.119-.66-11.053,2.639-23,5.133-25.043,3.615-2.955,5.558-4.98,8.134-2.024,1.69,1.97-.958,21.3-.85,31.243h0c0,.289.651,4.844.75,6.037C67.345,178.283,66.034,180.452,63.685,183.29Z" transform="translate(-25.492 -92.522)" fill="#407bff"/>
        <path id="Path_28" data-name="Path 28" d="M63.685,183.29c-2.341,2.847-5.54,4.844-8.676,6.787l-6.832,4.239c-2.341,1.455-4.853,2.955-7.61,2.919s-5.2-5.1-4.519-6.109c3.859-5.892,13-12.038,16.069-16.512a20,20,0,0,0,1.41-3.461c0-1.889.208-9.119.208-9.119-.66-11.053,2.639-23,5.133-25.043,3.615-2.955,5.558-4.98,8.134-2.024,1.69,1.97-.958,21.3-.85,31.243h0c0,.289.651,4.844.75,6.037C67.345,178.283,66.034,180.452,63.685,183.29Z" transform="translate(-25.492 -92.522)" opacity="0.2"/>
        <path id="Path_29" data-name="Path 29" d="M35.5,200.13l-6.823.307,3.8,7.013s3.814-1.934,4.971-4.88Z" transform="translate(-24.794 -98.933)" fill="#ffb573"/>
        <path id="Path_30" data-name="Path 30" d="M24.38,203.833l2.594,5.748,5.061-2.088-3.8-7.013Z" transform="translate(-24.38 -98.967)" fill="#ffb573"/>
        <path id="Path_31" data-name="Path 31" d="M32.79,196.46l4.925,9.824,5.314-.533L36,192.52Z" transform="translate(-25.189 -98.201)" fill="#407bff"/>
        <path id="Path_32" data-name="Path 32" d="M32.79,196.46l4.925,9.824,5.314-.533L36,192.52Z" transform="translate(-25.189 -98.201)" fill="#fff" opacity="0.4"/>
        <path id="Path_33" data-name="Path 33" d="M69.149,354.956a5.929,5.929,0,0,1,.569,2.757c-.063,3.47-.443,12.653-.443,12.653h-.813s-.181-4.519-.578-6.805-.9-.371-2.3,2.006-5.016,4.672-10.294,4.8c-6.191.145-8.694-.127-6.9-1.627s5.92-2.467,5.92-2.467,5.938-8.269,6.019-14.108c.081-6.254,7.339.09,8.884-.687C69.673,351.585,68.887,354.459,69.149,354.956Z" transform="translate(-26.636 -113.297)" fill="#263238"/>
        <path id="Path_34" data-name="Path 34" d="M134.944,348.138a5.938,5.938,0,0,1,1.681,2.259c1.41,3.172,4.943,11.658,4.943,11.658l-.732.343s-2.079-4.022-3.4-5.929-.976.045-1.247,2.793-2.567,6.326-7.293,8.7c-5.549,2.711-7.935,3.561-6.941,1.437s4.3-4.727,4.3-4.727,1.889-10-.506-15.364c-2.567-5.7,6.688-3.018,7.763-4.383C134.031,344.848,134.483,347.777,134.944,348.138Z" transform="translate(-33.75 -112.869)" fill="#263238"/>
        <path id="Path_35" data-name="Path 35" d="M47.95,176.483,40.168,204.5c-.569,2.033-1.112,4.3-.136,6.164,1.5,2.847,5.423,3.037,8.64,2.847l14.894-.9c2.594-.154,5.594-.551,6.941-2.775a8.007,8.007,0,0,0,.7-4.519q-.6-13.385-2.4-26.67c-.7-5.142-2.223-11.324-8.333-11.333C54.014,167.328,49.649,170.347,47.95,176.483Z" transform="translate(-25.835 -95.774)" fill="#263238"/>
        <path id="Path_36" data-name="Path 36" d="M47.95,176.483,40.168,204.5c-.569,2.033-1.112,4.3-.136,6.164,1.5,2.847,5.423,3.037,8.64,2.847l14.894-.9c2.594-.154,5.594-.551,6.941-2.775a8.007,8.007,0,0,0,.7-4.519q-.6-13.385-2.4-26.67c-.7-5.142-2.223-11.324-8.333-11.333C54.014,167.328,49.649,170.347,47.95,176.483Z" transform="translate(-25.835 -95.774)" fill="#fafafa" opacity="0.1"/>
        <path id="Path_37" data-name="Path 37" d="M97.515,256.013c-4.058.569-7.79,3.145-18.346,3.47H77.153c-2.829,0-18.87-1.808-21.753-3.687,4.284-25.694,9.471-54.117,10.339-59.314v-.054l.7-4.212-.362-1.437v-.38l14.4.524,16.2.6S108.966,211.81,97.515,256.013Z" transform="translate(-27.365 -97.997)" fill="#263238"/>
        <path id="Path_38" data-name="Path 38" d="M65.914,133.724c2.711-.732,7.357-1.907,11.6-2.666a109.442,109.442,0,0,1,15.066-1.374c3.2-.136,6.326,0,8.83.108a4.228,4.228,0,0,1,.9.154,4.157,4.157,0,0,1,2.865,5.142c-6.805,24.32-7.863,35.138-8.134,47.691l-29.779-.9a1.428,1.428,0,0,1-1.374-1.247C64.44,170,61.548,161.315,61.3,155.08A73.114,73.114,0,0,1,62.9,137.095,4.184,4.184,0,0,1,65.914,133.724Z" transform="translate(-27.929 -92.148)" fill="#407bff"/>
        <path id="Path_39" data-name="Path 39" d="M65.914,133.724c2.711-.732,7.357-1.907,11.6-2.666a109.442,109.442,0,0,1,15.066-1.374c3.2-.136,6.326,0,8.83.108a4.228,4.228,0,0,1,.9.154,4.157,4.157,0,0,1,2.865,5.142c-6.805,24.32-7.863,35.138-8.134,47.691l-29.679-.9a1.554,1.554,0,0,1-1.491-1.3C64.422,170,61.548,161.343,61.3,155.125A73.116,73.116,0,0,1,62.9,137.14a4.184,4.184,0,0,1,3.01-3.416Z" transform="translate(-27.929 -92.148)" opacity="0.1"/>
        <path id="Path_40" data-name="Path 40" d="M53.819,170.781l-1.7-.624a136.52,136.52,0,0,0,5.929-22.232c1.681-8.595,2.6-13.33,9.038-14.6l.352,1.807c-5.242,1.039-5.992,4.844-7.619,13.177a138.356,138.356,0,0,1-6,22.476Z" transform="translate(-27.05 -92.503)" fill="#263238"/>
        <path id="Path_41" data-name="Path 41" d="M53.819,170.781l-1.7-.624a136.52,136.52,0,0,0,5.929-22.232c1.681-8.595,2.6-13.33,9.038-14.6l.352,1.807c-5.242,1.039-5.992,4.844-7.619,13.177a138.356,138.356,0,0,1-6,22.476Z" transform="translate(-27.05 -92.503)" fill="#fafafa" opacity="0.1"/>
        <path id="Path_42" data-name="Path 42" d="M108.937,131.692a6.118,6.118,0,0,0-9.887,2.991c-.994,3.073,6.326,30.872,6.326,30.881,0,3.615,10.764,9.038,10.764,9.038C119.683,169.939,110.935,133.364,108.937,131.692Z" transform="translate(-31.557 -92.204)" fill="#407bff"/>
        <path id="Path_43" data-name="Path 43" d="M98.477,150.446c-.994-2.711-3.217-9.038-6.082-9.137-1.726-.063-5.224.244-6.046,1.762s.145,7.067,2.042,16.033a38.384,38.384,0,0,0,7.4,15.888c3.579,4.239,7.917,7.23,13.339,6.109,2.512-.524,4.989-2.051,5.865-4.455,2.711-7.411-3.2-11.369-7.284-14.46C102.743,158.417,100.574,156.086,98.477,150.446Z" transform="translate(-30.316 -93.271)" fill="#407bff"/>
        <path id="Path_44" data-name="Path 44" d="M97.905,129.67l-1.121,1.708c-4.32,6.616-13.782,14.831-17.3,15.463a12.652,12.652,0,0,0-3.29-5,7.492,7.492,0,0,0-4.166,4.23c-2.648-4.953-1.988-10.954-1.039-13.891h0c1.808-.407,3.678-.813,5.486-1.13a109.417,109.417,0,0,1,15.066-1.365,51.625,51.625,0,0,1,6.362-.018Z" transform="translate(-28.786 -92.143)" fill="#407bff"/>
        <path id="Path_45" data-name="Path 45" d="M97.905,129.67l-1.121,1.708c-4.32,6.616-13.782,14.831-17.3,15.463a12.652,12.652,0,0,0-3.29-5,7.492,7.492,0,0,0-4.166,4.23c-2.648-4.953-1.988-10.954-1.039-13.891h0c1.808-.407,3.678-.813,5.486-1.13a109.417,109.417,0,0,1,15.066-1.365,51.625,51.625,0,0,1,6.362-.018Z" transform="translate(-28.786 -92.143)" fill="#fff" opacity="0.2"/>
        <path id="Path_46" data-name="Path 46" d="M57.477,100.1c.488,3.461,0,9.761-4.618,16.665-5.965,8.848,7.094,14.46,15.8,13.827,7.682-.56,24.853-8.233,27.791-14.514S91.5,109.75,89.073,98.363,78.047,88.584,71,88.575C61.445,86.406,56.456,93.022,57.477,100.1Z" transform="translate(-26.976 -88.156)" fill="#263238"/>
        <path id="Path_47" data-name="Path 47" d="M77.192,124.109c2.052,2.775,3.552,6.055.334,9.724a4.374,4.374,0,0,0-1.157,2.775c0,1.645.9,3.254,6.326.081,7.781-4.582,7.131-9.761,7.131-9.761-4.094-1.238-6.543-9.842-7.492-14.758Z" transform="translate(-29.384 -90.468)" fill="#ffb573"/>
        <path id="Path_48" data-name="Path 48" d="M81.962,120.072c.606,2.088-1.618,5.423-3.3,6.76a14.351,14.351,0,0,0-1.374-2.214l3.028-7.058A7.392,7.392,0,0,1,81.962,120.072Z" transform="translate(-29.472 -90.986)" opacity="0.2"/>
        <path id="Path_49" data-name="Path 49" d="M82.694,97.425a10.935,10.935,0,0,0-14.966-3.9c-7.348,4.257-6.787,16.168-4.094,23.055,2.955,7.655,12.942,8.631,18.075,1.672,3.47-4.636,3.037-8.016,2.422-16.015a10.845,10.845,0,0,0-1.437-4.817Z" transform="translate(-27.981 -88.529)" fill="#ffb573"/>
        <path id="Path_50" data-name="Path 50" d="M73.012,108.052a.7.7,0,0,0-.624.081.651.651,0,0,0-.136.6l-.669.081a1.166,1.166,0,0,1,0-.723,1.193,1.193,0,0,1,1.536-.687,3.931,3.931,0,0,1,2.2,1.437l-.578.352A3.29,3.29,0,0,0,73.012,108.052Z" transform="translate(-28.917 -90.001)" fill="#263238"/>
        <path id="Path_51" data-name="Path 51" d="M64.919,109.6a.7.7,0,0,0-.352-.461.777.777,0,0,0-.569,0,1.048,1.048,0,0,0-.669,1H62.66a1.69,1.69,0,0,1,1.1-1.582.959.959,0,0,1,.226-.081,1.283,1.283,0,0,1,1.564.9Z" transform="translate(-28.064 -90.108)" fill="#263238"/>
        <path id="Path_52" data-name="Path 52" d="M68.239,114.754a2.838,2.838,0,0,1-2.359-.118,17.4,17.4,0,0,0,1.726-4.446Z" transform="translate(-28.374 -90.277)" fill="#ed893e"/>
        <path id="Path_53" data-name="Path 53" d="M74.8,114.9a.181.181,0,0,0-.09-.253.19.19,0,0,0-.253.09,5.088,5.088,0,0,1-3.886,2.576.217.217,0,0,0-.163.217h0a.181.181,0,0,0,.208.154,6.268,6.268,0,0,0,.9-.181,5.422,5.422,0,0,0,3.281-2.6Z" transform="translate(-28.81 -90.704)" fill="#263238"/>
        <path id="Path_54" data-name="Path 54" d="M59.681,95.127c-2.711,3.479,1.952,7.564,2.612,5.423,1.085-3.615,4.148-4.41,4.121-7.4C66.377,88.43,62.419,91.657,59.681,95.127Z" transform="translate(-27.697 -88.409)" fill="#263238"/>
        <path id="Path_55" data-name="Path 55" d="M73.893,102.971h0a.38.38,0,0,0-.081-.533,5.216,5.216,0,0,0-4.32-.515.38.38,0,1,0,.235.723,4.452,4.452,0,0,1,3.615.389.362.362,0,0,0,.443,0Z" transform="translate(-28.696 -89.457)" fill="#263238"/>
        <path id="Path_56" data-name="Path 56" d="M61.316,105.642a3,3,0,0,1,2.4-1.374h0a.384.384,0,0,0,.018-.768,3.8,3.8,0,0,0-3.055,1.7h0a.389.389,0,0,0,.108.524.38.38,0,0,0,.38,0A.678.678,0,0,0,61.316,105.642Z" transform="translate(-27.868 -89.633)" fill="#263238"/>
        <path id="Path_57" data-name="Path 57" d="M71.484,95.586a8.287,8.287,0,0,1,5.739,4.166,14.261,14.261,0,0,0,1.663,3.028c.759.84,3.263,4.284,4.157,4.962s.578-1.988,1.437-2.5a15.843,15.843,0,0,0,2.594-1.464,4.41,4.41,0,0,0,1.338-3.723,8.3,8.3,0,0,0-1.536-3.723A14.523,14.523,0,0,0,66.45,92.712c-1,.723-3.877,3.778-1.31,4.148.777.108,2.142-.9,2.928-1.13A8.215,8.215,0,0,1,71.484,95.586Z" transform="translate(-28.203 -88.335)" fill="#263238"/>
        <path id="Path_58" data-name="Path 58" d="M87.356,107.219c-2.377-2.856-5.685-3.2-8.6-3.507a10.845,10.845,0,0,1-4.058-.9c-2.811-1.591-4.184-5.974-4.365-7.393a3.47,3.47,0,0,0-2.214-2.567,3.028,3.028,0,0,0-2.567.831c-.606.7-.669,1.808-.181,3.281l-.434.136c-.533-1.627-.443-2.874.271-3.714a3.552,3.552,0,0,1,2.982-.976,3.9,3.9,0,0,1,2.594,2.955c.163,1.3,1.509,5.567,4.13,7.049a10.709,10.709,0,0,0,3.886.841c2.865.3,6.408.66,8.9,3.615Z" transform="translate(-28.25 -88.562)" fill="#263238"/>
        <path id="Path_59" data-name="Path 59" d="M87.356,107.219c-2.377-2.856-5.685-3.2-8.6-3.507a10.845,10.845,0,0,1-4.058-.9c-2.811-1.591-4.184-5.974-4.365-7.393a3.47,3.47,0,0,0-2.214-2.567,3.028,3.028,0,0,0-2.567.831c-.606.7-.669,1.808-.181,3.281l-.434.136c-.533-1.627-.443-2.874.271-3.714a3.552,3.552,0,0,1,2.982-.976,3.9,3.9,0,0,1,2.594,2.955c.163,1.3,1.509,5.567,4.13,7.049a10.709,10.709,0,0,0,3.886.841c2.865.3,6.408.66,8.9,3.615Z" transform="translate(-28.25 -88.562)" fill="#fff" opacity="0.1"/>
        <path id="Path_60" data-name="Path 60" d="M89.438,108.587a2.63,2.63,0,0,0-2.946-2.259c-1.988.3-2.892,2.973-2.892,4.727,0,1.934,1.437,3.362,3.181,2.277a5.874,5.874,0,0,0,2.6-3.687A2.539,2.539,0,0,0,89.438,108.587Z" transform="translate(-30.079 -89.903)" fill="#ffb573"/>
        <path id="Path_61" data-name="Path 61" d="M88.614,111.044a1.853,1.853,0,1,1-.132-1.417A1.853,1.853,0,0,1,88.614,111.044Z" transform="translate(-30.213 -90.128)" fill="#fff"/>
        <rect id="Rectangle_11" data-name="Rectangle 11" width="1.459" height="3.906" transform="translate(56.333 21.729) rotate(16.809)" fill="#fff"/>
        <path id="Path_62" data-name="Path 62" d="M87.928,110.054a.352.352,0,0,1-.434.235.343.343,0,1,1,.434-.235Z" transform="translate(-30.431 -90.222)" fill="#263238"/>
        <rect id="Rectangle_12" data-name="Rectangle 12" width="19.865" height="10.032" rx="1.34" transform="matrix(0.751, -0.66, 0.66, 0.751, 46.649, 39.744)" fill="#407bff"/>
        <path id="Path_63" data-name="Path 63" d="M90.009,138.313l2.214-6.453-7.953.994s.416,4.248,2.711,6.417Z" transform="translate(-30.144 -92.363)" fill="#ffb573"/>
        <path id="Path_64" data-name="Path 64" d="M89.958,124.85l-5.748,1.817.081,5.477,7.926-.967Z" transform="translate(-30.138 -91.688)" fill="#ffb573"/>
        <path id="Path_65" data-name="Path 65" d="M94.306,137.94,83.38,140.082l.271,4.98,12.761-2.82Z" transform="translate(-30.058 -92.948)" fill="#407bff"/>
        <path id="Path_66" data-name="Path 66" d="M94.306,137.94,83.38,140.082l.271,4.98,12.761-2.82Z" transform="translate(-30.058 -92.948)" fill="#fff" opacity="0.4"/>
        <path id="Path_67" data-name="Path 67" d="M97.343,191.633l-14.966-.615-1.256-.054-3.263-.136-1.247-.045-8.812-.352c-.271-.054-.506-.172-.506-.343L67.13,187.3c0-.19.235-.343.542-.334l8.73.244h1.048l4.311.127h1.021l14.46.407a.578.578,0,0,1,.506.253l.127,3.154C97.966,191.425,97.74,191.633,97.343,191.633Z" transform="translate(-28.494 -97.666)" fill="#407bff"/>
        <path id="Path_68" data-name="Path 68" d="M97.343,191.633l-14.966-.615-1.256-.054-3.263-.136-1.247-.045-8.812-.352c-.271-.054-.506-.172-.506-.343L67.13,187.3c0-.19.235-.343.542-.334l8.73.244h1.048l4.311.127h1.021l14.46.407a.578.578,0,0,1,.506.253l.127,3.154C97.966,191.425,97.74,191.633,97.343,191.633Z" transform="translate(-28.494 -97.666)" fill="#fff" opacity="0.2"/>
        <path id="Path_69" data-name="Path 69" d="M72.342,190.926l.958.045a.271.271,0,0,0,.343-.217l-.271-3.94c0-.117-.172-.235-.371-.244h-.958c-.2,0-.343.09-.343.208l.271,3.958a.4.4,0,0,0,.371.19Z" transform="translate(-28.934 -97.628)" fill="#263238"/>
        <path id="Path_70" data-name="Path 70" d="M90.837,191.9h.9c.181,0,.325-.09.325-.2l-.235-3.922c0-.108-.172-.226-.352-.226h-.9c-.19,0-.325.072-.325.19l.253,3.949C90.494,191.789,90.648,191.879,90.837,191.9Z" transform="translate(-30.719 -97.722)" fill="#263238"/>
        <circle id="Ellipse_3" data-name="Ellipse 3" cx="1.175" cy="1.175" r="1.175" transform="translate(45.929 54.997)" fill="#fff" opacity="0.4"/>
        <path id="Path_71" data-name="Path 71" d="M78.338,164.465a1.184,1.184,0,1,1-1.184-1.175,1.184,1.184,0,0,1,1.184,1.175Z" transform="translate(-29.345 -95.388)" fill="#fff" opacity="0.4"/>
      </g>
      <g id="Character_2" data-name="Character 2" transform="translate(246.691 123.827)">
        <path id="Path_72" data-name="Path 72" d="M288.57,183.424s.47,5.142,9.562,8.387,6.155-2.666,6.155-2.666c-4.184-2.847-3.968-5.956-2.467-8.956A22.648,22.648,0,0,1,303.057,178l-3.977-6.941L296.189,166C295.439,171.5,293.3,181.283,288.57,183.424Z" transform="translate(-274.756 -140.029)" fill="#7f3e3b"/>
        <path id="Path_73" data-name="Path 73" d="M320.07,163.649c.38.09.6.642.47,1.229s-.524.985-.9.9-.587-.651-.47-1.238S319.7,163.558,320.07,163.649Z" transform="translate(-277.697 -139.802)" fill="#263238"/>
        <path id="Path_74" data-name="Path 74" d="M317.249,161.521a.362.362,0,0,1,0-.506,3.615,3.615,0,0,1,3.037-1.157h0a.353.353,0,0,1,.289.407.362.362,0,0,1-.407.289,2.964,2.964,0,0,0-2.413.949.335.335,0,0,1-.307.108A.461.461,0,0,1,317.249,161.521Z" transform="translate(-277.506 -139.436)" fill="#263238"/>
        <path id="Path_75" data-name="Path 75" d="M317.91,169.685a2.874,2.874,0,0,0,2.44.3,19.774,19.774,0,0,1-1.157-4.944Z" transform="translate(-277.58 -139.937)" fill="#630f0f"/>
        <path id="Path_76" data-name="Path 76" d="M299.888,151.515a9.706,9.706,0,0,1,13.6-1.808c6.326,4.582,5.133,15.508,2.25,21.609a9.6,9.6,0,0,1-16.936,1.057c-2.847-4.519-1.808-8.794-.8-16.1a9.724,9.724,0,0,1,1.88-4.763Z" transform="translate(-275.563 -138.269)" fill="#7f3e3b"/>
        <path id="Path_77" data-name="Path 77" d="M313.808,161.82c1.744.985,1.889,4.519,1.482,6.6-.479,2.323-2.142,3.615-3.443,1.753a8.63,8.63,0,0,1-1.428-5.2C310.518,162.607,312.055,160.835,313.808,161.82Z" transform="translate(-276.858 -139.6)" fill="#7f3e3b"/>
        <path id="Path_78" data-name="Path 78" d="M317.352,173.883a1.464,1.464,0,0,1-1.057-.443,1.482,1.482,0,0,1-.4-1.311v-.1l.443.09v.1a1.012,1.012,0,0,0,.28.9.994.994,0,0,0,.9.289l.072.452Z" transform="translate(-277.383 -140.61)"/>
        <path id="Path_79" data-name="Path 79" d="M319.673,152.868a9.995,9.995,0,0,1-2.955,3.073,4.943,4.943,0,0,1-.741.407c-1.573.723-3.326.9-4.618-.262a5.088,5.088,0,0,1-.244,3.226,10.094,10.094,0,0,1-2.359,3.525,4.843,4.843,0,0,0,.163-2.775,2.765,2.765,0,0,0-1.03-1.446,2.549,2.549,0,0,0-3.678.651,4.718,4.718,0,0,0-.217,3.615,9.51,9.51,0,0,1,.524,3.615c-.19,1.22-1.247,2.422-2.467,2.223a3.091,3.091,0,0,1-2.006,1.672,3.534,3.534,0,0,1-3.109-.5,2.266,2.266,0,0,1-.47-.461,3.407,3.407,0,0,1-1.979,1.03,3.317,3.317,0,0,1-1.654-.145,3.47,3.47,0,0,1-2.25-2.991,3.443,3.443,0,0,1-2.07-6.462,3.967,3.967,0,0,1,.551-7.5c-1.41-1.934,0-4.727,1.645-5.594a2.63,2.63,0,0,1,.461-.172,1.707,1.707,0,0,1,.849-.045h.145a1.807,1.807,0,0,1,.4.19h.1a10.788,10.788,0,0,0,1.121-1.4l.154-.217c.063-.072.118-.154.172-.226.7-.9,1.365-1.808,1.383-1.356a6.887,6.887,0,0,1,11.749-5.26,4.646,4.646,0,0,1,4.591-1.573,4.7,4.7,0,0,1,3.443,3.425c2.6-.85,5.495,1.3,6.209,3.949S321.173,150.582,319.673,152.868Z" transform="translate(-274.516 -137.264)" fill="#263238"/>
        <g id="_Group_" data-name="&lt;Group&gt;" transform="translate(0 39.341)">
          <path id="Path_80" data-name="Path 80" d="M348.8,342.29l6.5-2.25,2.214,16.078-6.5,2.241Z" transform="translate(-280.553 -196.12)" fill="#7f3e3b"/>
          <path id="Path_81" data-name="Path 81" d="M349.87,351.12l6.606-1.518-1.238-9-6.5,2.232Z" transform="translate(-280.547 -196.174)" opacity="0.2"/>
          <path id="Path_82" data-name="Path 82" d="M359.259,357.273c2.205,1.112,5.856,1.663,11.451,1.491,1.283,0,2.033,2.711-.768,3.4s-8.36,1.97-10.411,2.386a49.855,49.855,0,0,0-5.3,1.374,2.838,2.838,0,0,1-3.543-1.907,2.17,2.17,0,0,1-.063-.687s.479-5.576.741-5.63l5.721-2.368C357.488,355.257,357.976,356.893,359.259,357.273Z" transform="translate(-280.727 -197.592)" fill="#7f3e3b"/>
          <path id="Path_83" data-name="Path 83" d="M275.73,255.266a51.091,51.091,0,0,0,3.8,18.075c4.727,11.333,33.891,8.983,46.643,8.441-.9,15.617,13.376,58.012,13.376,58.012l11.6-3.082s-5.495-39.7-5.179-61.284c.28-19.7-45.143-21.609-45.143-21.609Z" transform="translate(-273.52 -187.822)" fill="#407bff"/>
          <path id="Path_84" data-name="Path 84" d="M275.73,255.266a51.091,51.091,0,0,0,3.8,18.075c4.727,11.333,33.891,8.983,46.643,8.441-.9,15.617,13.213,57.515,13.213,57.515l11.749-3.389s-5.495-38.862-5.179-60.479c.28-19.7-45.143-21.609-45.143-21.609Z" transform="translate(-273.52 -187.822)" fill="#fff" opacity="0.3"/>
          <path id="Path_85" data-name="Path 85" d="M342.91,342.136l15.255-4.076.524,6.579-14.216,4.528Z" transform="translate(-279.986 -195.93)" fill="#407bff"/>
          <path id="Path_86" data-name="Path 86" d="M378.32,346.492l6.146-3.082,4.989,15.274-6.146,3.082Z" transform="translate(-283.394 -196.445)" fill="#7f3e3b"/>
          <path id="Path_87" data-name="Path 87" d="M391.07,359c2.205,1.112,5.856,1.663,11.442,1.491,1.292,0,2.042,2.711-.759,3.4s-8.369,1.97-10.411,2.386c-3.317.669-7.736,2.124-7.944-.8,0,0-.5-6-.235-6.046l5.73-2.368C389.335,357.005,389.642,358.081,391.07,359Z" transform="translate(-283.852 -197.758)" fill="#7f3e3b"/>
          <path id="Path_88" data-name="Path 88" d="M380.587,353.332l6.146-3.082-2.567-7.881-6.146,3.082Z" transform="translate(-283.365 -196.345)" opacity="0.2"/>
          <path id="Path_89" data-name="Path 89" d="M292.156,254.224s-1.356,12.653,2.521,21.9c4.727,11.324,40.344,3.118,54.4,6.516.669,22.07,19.883,59.25,19.883,59.25l11.469-5.2s-6.579-33.864-12.824-63.263c-1.591-21.952-51.451-20.181-51.749-20.163Z" transform="translate(-275.079 -187.765)" fill="#407bff"/>
          <path id="Path_90" data-name="Path 90" d="M292.156,254.163s-1.356,12.653,2.521,21.9c4.727,11.324,40.344,3.118,54.4,6.516.669,22.07,19.883,59.25,19.883,59.25l11.469-5.2s-6.579-33.864-12.824-63.263c-1.681-23.434-59.07-20.678-59.368-20.669Z" transform="translate(-275.079 -187.704)" fill="#fff" opacity="0.5"/>
          <path id="Path_91" data-name="Path 91" d="M373.6,345.367l14.858-5.847,1.392,5.811-14.026,7.031Z" transform="translate(-282.939 -196.07)" fill="#407bff"/>
          <g id="Monitor_Screen" data-name="Monitor Screen" transform="translate(28.444 23.969)">
            <g id="PC">
              <path id="Path_92" data-name="Path 92" d="M360.619,247l-53.159-3.407,5.106-33.5,53.159,3.4Z" transform="translate(-305.018 -207.583)" fill="#407bff"/>
              <path id="Path_93" data-name="Path 93" d="M359.455,249.317l-52.373-3.353a2.422,2.422,0,0,1-2.287-2.847l5.07-33.294a2.991,2.991,0,0,1,3.1-2.5l52.418,3.353a2.422,2.422,0,0,1,2.278,2.847L362.555,246.8a2.991,2.991,0,0,1-3.1,2.521Z" transform="translate(-304.758 -207.316)" fill="#407bff"/>
              <path id="Path_94" data-name="Path 94" d="M360.619,247l-53.159-3.407,5.106-33.5,53.159,3.4Z" transform="translate(-305.018 -207.583)" fill="#407bff"/>
              <path id="Path_95" data-name="Path 95" d="M360.619,247l-53.159-3.407,5.106-33.5,53.159,3.4Z" transform="translate(-305.018 -207.583)" fill="#fff" opacity="0.9"/>
              <path id="Path_96" data-name="Path 96" d="M363.121,223.572l-9.761-.624.831-5.459,9.76.624Z" transform="translate(-309.436 -208.295)" fill="#407bff"/>
              <path id="Path_97" data-name="Path 97" d="M361.3,235.482l-9.752-.624.822-5.459,9.761.624Z" transform="translate(-309.261 -209.441)" fill="#407bff"/>
              <path id="Path_98" data-name="Path 98" d="M359.491,247.4l-9.761-.624.831-5.459,9.761.624Z" transform="translate(-309.086 -210.589)" fill="#407bff"/>
              <path id="Path_99" data-name="Path 99" d="M357.861,210.16,345,248.326l3.488.226,12.752-38.175Z" transform="translate(-308.631 -207.59)" fill="#fff" opacity="0.1"/>
              <path id="Path_100" data-name="Path 100" d="M363.83,210.54l-12.87,38.175,6.932.443,12.752-38.175Z" transform="translate(-309.205 -207.626)" fill="#fff" opacity="0.1"/>
              <path id="Path_101" data-name="Path 101" d="M314.445,240.43l-.045.307,28.17,1.808.045-.316Z" transform="translate(-305.686 -210.503)" fill="#407bff"/>
              <path id="Path_102" data-name="Path 102" d="M343.224,236.231l-28.134-1.8,2.946-19.322,28.134,1.8Z" transform="translate(-305.752 -208.066)" fill="#407bff"/>
              <path id="Path_103" data-name="Path 103" d="M315.268,244.695h0a1.3,1.3,0,0,1-1.22-1.527h0a1.6,1.6,0,0,1,1.663-1.338h0a1.292,1.292,0,0,1,1.22,1.518h0a1.618,1.618,0,0,1-1.663,1.347Z" transform="translate(-305.65 -210.637)" fill="#407bff"/>
              <path id="Path_104" data-name="Path 104" d="M328.762,239.883l-14.072-.895.19-1.238,14.062.895Z" transform="translate(-305.714 -210.245)" fill="#407bff"/>
              <path id="Path_105" data-name="Path 105" d="M344.472,245.832l-5.432-.343.19-1.238,5.432.352Z" transform="translate(-308.057 -210.871)" fill="#407bff"/>
              <path id="Path_106" data-name="Path 106" d="M345.687,240.97l-1.247-.081.19-1.238,1.247.081Z" transform="translate(-308.577 -210.428)" fill="#407bff"/>
              <path id="Path_107" data-name="Path 107" d="M343.358,240.82l-1.238-.081.181-1.238,1.247.081Z" transform="translate(-308.354 -210.413)" fill="#407bff"/>
              <path id="Path_108" data-name="Path 108" d="M341.028,240.669l-1.238-.081.19-1.238,1.238.081Z" transform="translate(-308.13 -210.399)" fill="#407bff"/>
              <path id="Path_109" data-name="Path 109" d="M328.762,239.883l-14.072-.895.19-1.238,14.062.895Z" transform="translate(-305.714 -210.245)" fill="#fff" opacity="0.2"/>
              <path id="Path_110" data-name="Path 110" d="M342.615,242.228l-28.17-1.8-.045.307,28.17,1.808Z" transform="translate(-305.686 -210.503)" opacity="0.2"/>
            </g>
          </g>
          <path id="Path_111" data-name="Path 111" d="M344.08,252.152l17.668,1.365c.09,2.079-.9,2.711-2,2.666l-5.648-.452-3.769-.316-5.865-.452L317.5,253.155V250.57Z" transform="translate(-277.54 -187.51)" fill="#407bff"/>
          <path id="Path_112" data-name="Path 112" d="M344.08,252.152l17.668,1.365c.09,2.079-.9,2.711-2,2.666l-5.648-.452-3.769-.316-5.865-.452L317.5,253.155V250.57Z" transform="translate(-277.54 -187.51)" opacity="0.4"/>
          <path id="Path_113" data-name="Path 113" d="M337.89,229.092h-.045l-1.021-.145v-.506h.081v-.416h-.072l.072-2.277h-.045a2.278,2.278,0,0,0-2.051-.117h0l-.2,2.278h-.072v.416h.063v.506l-.958-.054H333.6a6.339,6.339,0,0,0,0,1.03,8.937,8.937,0,0,0-1.184-.47,4.511,4.511,0,0,0-.7-.19,1.121,1.121,0,0,1-.289-.9,3.078,3.078,0,0,1,.208-.615h-.045a2.81,2.81,0,0,0,2.088-1.907.9.9,0,0,0,.353-.37c.37,0,.7-.66.75-1.491s-.181-1.437-.515-1.545a2.251,2.251,0,0,0-.127-1.907,3.574,3.574,0,0,0-2.793-1.292c-1.808-.181-2.991.145-3.615.958a2.712,2.712,0,0,0-.47,2.133,2.457,2.457,0,0,0-.334,1.193c-.054.831.2,1.518.56,1.564.136.307.325.5.542.506a.524.524,0,0,0,.389-.172,3.182,3.182,0,0,0,.759,1.518,3.254,3.254,0,0,1-.732,2.187,5.424,5.424,0,0,0-1.808.515,8.984,8.984,0,0,0-2.178,1.283c-.8,1.31-.488,4.465-.488,4.465l12.571.8-.09-3.272a4.464,4.464,0,0,0-.325-.768c1.085-.181,1.708-1.184,1.807-2.991Zm-9.553-7.691a1.188,1.188,0,0,0-.063.163.334.334,0,0,0-.127,0,.56.56,0,0,0-.443.244,1.925,1.925,0,0,1,.38-1.274c.524-.651,1.573-.9,3.127-.741a3.054,3.054,0,0,1,2.359,1.021,1.491,1.491,0,0,1,.145,1.112h-.163a2.991,2.991,0,0,0-1.582-1.862,2.711,2.711,0,0,0-3.633,1.338Zm5.423,8.586a6.008,6.008,0,0,1-.054-1.021h.841v1.428a5.425,5.425,0,0,0-.759-.407Zm2.133,1.88a6.513,6.513,0,0,0-1.184-1.238,2.277,2.277,0,0,0,1.88,0h.054l.127-1.509.841.045c-.117,1.7-.687,2.576-1.69,2.7Z" transform="translate(-278.156 -184.478)" fill="#407bff"/>
          <path id="Path_114" data-name="Path 114" d="M337.89,229.092h-.045l-1.021-.145v-.506h.081v-.416h-.072l.072-2.277h-.045a2.278,2.278,0,0,0-2.051-.117h0l-.2,2.278h-.072v.416h.063v.506l-.958-.054H333.6a6.339,6.339,0,0,0,0,1.03,8.937,8.937,0,0,0-1.184-.47,4.511,4.511,0,0,0-.7-.19,1.121,1.121,0,0,1-.289-.9,3.078,3.078,0,0,1,.208-.615h-.045a2.81,2.81,0,0,0,2.088-1.907.9.9,0,0,0,.353-.37c.37,0,.7-.66.75-1.491s-.181-1.437-.515-1.545a2.251,2.251,0,0,0-.127-1.907,3.574,3.574,0,0,0-2.793-1.292c-1.808-.181-2.991.145-3.615.958a2.712,2.712,0,0,0-.47,2.133,2.457,2.457,0,0,0-.334,1.193c-.054.831.2,1.518.56,1.564.136.307.325.5.542.506a.524.524,0,0,0,.389-.172,3.182,3.182,0,0,0,.759,1.518,3.254,3.254,0,0,1-.732,2.187,5.424,5.424,0,0,0-1.808.515,8.984,8.984,0,0,0-2.178,1.283c-.8,1.31-.488,4.465-.488,4.465l12.571.8-.09-3.272a4.464,4.464,0,0,0-.325-.768c1.085-.181,1.708-1.184,1.807-2.991Zm-9.553-7.691a1.188,1.188,0,0,0-.063.163.334.334,0,0,0-.127,0,.56.56,0,0,0-.443.244,1.925,1.925,0,0,1,.38-1.274c.524-.651,1.573-.9,3.127-.741a3.054,3.054,0,0,1,2.359,1.021,1.491,1.491,0,0,1,.145,1.112h-.163a2.991,2.991,0,0,0-1.582-1.862,2.711,2.711,0,0,0-3.633,1.338Zm5.423,8.586a6.008,6.008,0,0,1-.054-1.021h.841v1.428a5.425,5.425,0,0,0-.759-.407Zm2.133,1.88a6.513,6.513,0,0,0-1.184-1.238,2.277,2.277,0,0,0,1.88,0h.054l.127-1.509.841.045c-.117,1.7-.687,2.576-1.69,2.7Z" transform="translate(-278.156 -184.478)" opacity="0.2"/>
          <path id="Path_115" data-name="Path 115" d="M364.526,253.685v.723a1.871,1.871,0,0,1-2.024,1.943l-5.649-.452-10.493-.732.47-2.847Z" transform="translate(-280.318 -187.678)" opacity="0.2"/>
          <path id="Path_116" data-name="Path 116" d="M287.13,183.89l17.171,2.2s-1.753-4.519-7.863-5.169A11.044,11.044,0,0,0,287.13,183.89Z" transform="translate(-274.617 -180.794)" fill="#407bff"/>
          <path id="Path_117" data-name="Path 117" d="M273.452,213.612c.678,13.556.4,27.411,2.043,34.885l4.13,1.1a44.8,44.8,0,0,0,22.115.253l12.273-2.982c-.072-12.87,1.039-37.958,1.636-50.43a9.706,9.706,0,0,0-6.869-9.743c-1.193-.361-2.25-.66-2.892-.8a136.875,136.875,0,0,0-15.463-1.916,69.675,69.675,0,0,0-7.754-.172l-1.283.054c-1.943.081-5.025,2.024-5.63,3.859C273.28,195.247,273.027,205.451,273.452,213.612Z" transform="translate(-273.285 -181.08)" fill="#407bff"/>
          <path id="Path_118" data-name="Path 118" d="M273.452,213.612c.678,13.556.4,27.411,2.043,34.885l4.13,1.1a44.8,44.8,0,0,0,22.115.253l12.273-2.982c-.072-12.87,1.039-37.958,1.636-50.43a9.706,9.706,0,0,0-6.869-9.743c-1.193-.361-2.25-.66-2.892-.8a136.875,136.875,0,0,0-15.463-1.916,69.675,69.675,0,0,0-7.754-.172l-1.283.054c-1.943.081-5.025,2.024-5.63,3.859C273.28,195.247,273.027,205.451,273.452,213.612Z" transform="translate(-273.285 -181.08)" fill="#263238"/>
          <path id="Path_119" data-name="Path 119" d="M315.7,189.5c.4,5.838.9,11.8,1.455,17.659.289,2.937.6,5.865.976,8.757s.8,5.775,1.365,8.541c.28,1.374.569,2.711.9,4.013.172.642.362,1.247.56,1.808.108.262.2.587.3.8l.154.343v.136a1.14,1.14,0,0,0-.172-.253c-.181-.226-.253-.181-.2-.163a2.361,2.361,0,0,0,.4.334,10.588,10.588,0,0,0,1.41.759,39.291,39.291,0,0,0,3.733,1.374c5.423,1.645,11.866,4.645,17.614,5.92l-.407,5.151c-6.218.244-19.25-1.961-24.076-4.085A17,17,0,0,1,317,239.514a13.379,13.379,0,0,1-1.536-.9,7.6,7.6,0,0,1-2.268-2.467l-.2-.371-.334-.678c-.244-.461-.38-.841-.578-1.274-.334-.841-.642-1.645-.9-2.449-.506-1.582-.9-3.136-1.329-4.7a157.428,157.428,0,0,1-3.127-18.346c-.353-3.037-.633-6.046-.9-9.1s-.479-6.055-.605-9.155Z" transform="translate(-276.358 -181.632)" fill="#7f3e3b"/>
          <path id="Path_120" data-name="Path 120" d="M345.32,249.234c.8,2.214,8.369,1.807,8.369,1.807l-.678-7.122-6.8,1.238Z" transform="translate(-280.218 -186.87)" fill="#7f3e3b"/>
          <path id="Path_121" data-name="Path 121" d="M353.83,243.88l.678,7.122,4.618.7-1.157-5Z" transform="translate(-281.037 -186.866)" fill="#7f3e3b"/>
          <path id="Path_122" data-name="Path 122" d="M302.206,192.694c-1.3,4.41.045,17.687,2.368,23.9l15.816-1.672s1.88-17.994-1.708-23.218C312.924,183.331,304.149,185.916,302.206,192.694Z" transform="translate(-276.019 -181.338)" fill="#263238"/>
        </g>
        <path id="Path_123" data-name="Path 123" d="M389.072,356.995l-6.435,2.476a.606.606,0,0,0-.389.714l1.509,9.589a1.247,1.247,0,0,0,1.527.9l.136-.045c2.784-1.112,4.076-1.807,7.619-3.118,2.178-.813,9.218-2.3,11.957-3.995s1.2-4.519-.09-4.031c-4.148,1.491-9.878.4-13.367-1.961A5.3,5.3,0,0,0,389.072,356.995Z" transform="translate(-283.77 -158.406)" fill="#263238"/>
        <path id="Path_124" data-name="Path 124" d="M393.411,360.621l.054.081a1.094,1.094,0,0,0,1.066,0,.669.669,0,0,0,.389-.533c.117-1.021-2.187-2.883-2.413-3.073a.162.162,0,0,0-.208,0,.19.19,0,0,0-.1.181C392.326,358.3,392.616,360.106,393.411,360.621Zm-.768-2.964c.9.759,1.988,1.889,1.916,2.44a.289.289,0,0,1-.19.226.705.705,0,0,1-.7,0c-.443-.262-.849-1.229-1-2.666Z" transform="translate(-284.729 -158.417)" fill="#407bff"/>
        <path id="Path_125" data-name="Path 125" d="M392.534,357.538c.822.569,2.612,1.2,3.353.813a.687.687,0,0,0,.307-.786.994.994,0,0,0-.524-.66c-1.021-.6-3.235.127-3.326.154a.181.181,0,0,0-.145.117.208.208,0,0,0,.054.181,2.969,2.969,0,0,0,.28.181Zm3.01-.307a.606.606,0,0,1,.262.4c.045.244,0,.325-.118.371-.488.28-2.024-.181-2.856-.714a4.267,4.267,0,0,1,2.657-.081h.054Z" transform="translate(-284.729 -158.38)" fill="#407bff"/>
        <path id="Path_126" data-name="Path 126" d="M356.811,354.72l-6.57,1.97a.6.6,0,0,0-.461.642l.262,9.146a1.139,1.139,0,0,0,1.383.9h.136c2.847-.9,4.193-1.446,7.808-2.5,2.223-.651,9.264-1.654,12.138-3.091s1.735-4.166.416-3.814a15.771,15.771,0,0,1-12.77-2.621A6.235,6.235,0,0,0,356.811,354.72Z" transform="translate(-280.647 -158.192)" fill="#263238"/>
        <path id="Path_127" data-name="Path 127" d="M362.046,358.7l.072.063a1.121,1.121,0,0,0,1.039-.244.66.66,0,0,0,.262-.606c-.108-1.021-2.711-2.35-3.019-2.485a.181.181,0,0,0-.208,0,.208.208,0,0,0-.054.2C360.483,356.656,361.151,358.355,362.046,358.7Zm-1.383-2.711c1.03.551,2.341,1.419,2.386,1.97a.271.271,0,0,1-.127.262.768.768,0,0,1-.687.181c-.488-.163-1.094-1.021-1.554-2.395Z" transform="translate(-281.643 -158.257)" fill="#407bff"/>
        <path id="Path_128" data-name="Path 128" d="M360.538,355.855c.9.38,2.811.624,3.443.081a.678.678,0,0,0,.136-.831.994.994,0,0,0-.66-.542c-1.121-.361-3.127.822-3.208.9a.172.172,0,0,0,0,.316Q360.391,355.826,360.538,355.855Zm2.874-.949a.6.6,0,0,1,.334.343.456.456,0,0,1,0,.38c-.425.38-2.024.262-2.946-.081.7-.352,1.9-.9,2.576-.651a.073.073,0,0,0,.063,0Z" transform="translate(-281.644 -158.17)" fill="#407bff"/>
        <path id="Path_129" data-name="Path 129" d="M309.024,159.451h0a5.983,5.983,0,1,1-6.579,10c-1.536-.9-2.865-4.573-1.048-7.329S306.277,157.643,309.024,159.451Z" transform="translate(-275.906 -139.327)" fill="#407bff"/>
        <path id="Path_130" data-name="Path 130" d="M302.334,149.549c-1.554-1.645-3.778-3.615-6.326-4.239,0,0-1.961,2.63-2.178,2.766-.163-.081,4.347,1.735,5.965,3.669a29.572,29.572,0,0,1,4.428,8.016l2.784-1.69A21.147,21.147,0,0,0,302.334,149.549Z" transform="translate(-275.262 -138.038)" fill="#407bff"/>
        <g id="Group_1" data-name="Group 1" transform="translate(18.564 7.272)" opacity="0.3">
          <path id="Path_131" data-name="Path 131" d="M302.334,149.549c-1.554-1.645-3.778-3.615-6.326-4.239,0,0-1.961,2.63-2.178,2.766-.163-.081,4.347,1.735,5.965,3.669a29.572,29.572,0,0,1,4.428,8.016l2.784-1.69A21.147,21.147,0,0,0,302.334,149.549Z" transform="translate(-293.825 -145.31)"/>
        </g>
        <path id="Path_132" data-name="Path 132" d="M310.089,161.747c1.636,1.13,1.807,3.742.425,5.865s-3.868,2.991-5.522,1.907-1.329-3.769.072-5.9S308.507,160.627,310.089,161.747Z" transform="translate(-276.229 -139.572)" opacity="0.3"/>
        <path id="Path_133" data-name="Path 133" d="M305.34,168.327l5.558-4.437.163,1.039-4.826,3.977Z" transform="translate(-276.37 -139.826)" fill="#263238"/>
      </g>
      <g id="Chair" transform="translate(212.247 185.346)">
        <path id="Path_134" data-name="Path 134" d="M297.045,315l-6.805,50.1h2.44L301.5,315Z" transform="translate(-240.409 -215.888)" fill="#263238"/>
        <path id="Path_135" data-name="Path 135" d="M283.46,207.508c-5.061-3.136-13.773-2.567-19.268-.28s-10,6.489-13.737,11.125C237,235.082,232.579,264.12,236.447,285.232c1.392,7.582,3.877,15.165,8.775,21.121,4.067,4.935,9.589,8.486,15.319,11.333a74.84,74.84,0,0,0,33.249,8.134,57.4,57.4,0,0,0,32.535-9.842c6.841-4.754,12.589-11.378,15.228-19.277s1.88-16.837-2.982-23.606c-4.347-6.073-11.613-9.164-18.8-11.225-.75-.208-1.518-.407-2.3-.569-12.508-2.711-21.817-19.449-23.57-32.12C293.908,229.108,290.437,211.837,283.46,207.508Z" transform="translate(-235.102 -205.333)" fill="#407bff"/>
        <path id="Path_136" data-name="Path 136" d="M262.974,325.07l-8.694,44.465H257.4l11.279-44.465Z" transform="translate(-236.948 -216.857)" fill="#263238"/>
        <path id="Path_137" data-name="Path 137" d="M321.554,325.07l8.7,44.465H327.13L315.86,325.07Z" transform="translate(-242.874 -216.857)" fill="#263238"/>
      </g>
      <g id="Podcaster" transform="translate(105.584 11.423)">
        <path id="Path_138" data-name="Path 138" d="M135.862,66.626h-.136a.452.452,0,0,1-.289-.569,57.476,57.476,0,0,1,3.8-9.083.455.455,0,1,1,.8.425,56.533,56.533,0,0,0-3.742,8.947.452.452,0,0,1-.434.28Z" transform="translate(-118.762 -16.883)" fill="#407bff"/>
        <path id="Path_139" data-name="Path 139" d="M139.645,117.056a.461.461,0,0,1-.4-.235c-6.959-12.463-9.038-28.306-5.694-43.48a.463.463,0,1,1,.9.2c-3.3,14.957-1.256,30.565,5.6,42.838a.461.461,0,0,1-.181.615.38.38,0,0,1-.235.063Z" transform="translate(-118.433 -18.447)" fill="#407bff"/>
        <path id="Path_140" data-name="Path 140" d="M126.361,99.19a.443.443,0,0,1-.443-.343,54.885,54.885,0,0,1,4.519-37.262.461.461,0,0,1,.615-.19.452.452,0,0,1,.19.606,53.963,53.963,0,0,0-4.483,36.638.452.452,0,0,1-.334.542Z" transform="translate(-117.711 -17.327)" fill="#407bff"/>
        <path id="Path_141" data-name="Path 141" d="M131.43,116.224a.452.452,0,0,1-.389-.226,45.6,45.6,0,0,1-2.964-6.453.453.453,0,1,1,.85-.316,44.811,44.811,0,0,0,2.9,6.326.443.443,0,0,1-.172.615A.488.488,0,0,1,131.43,116.224Z" transform="translate(-118.053 -21.907)" fill="#407bff"/>
        <path id="Path_142" data-name="Path 142" d="M118.822,76.654h-.1a.452.452,0,0,1-.334-.551A41.918,41.918,0,0,1,122,66.234a.453.453,0,0,1,.8.416,40.714,40.714,0,0,0-3.615,9.661.461.461,0,0,1-.371.343Z" transform="translate(-117.122 -17.774)" fill="#407bff"/>
        <path id="Path_143" data-name="Path 143" d="M122.539,109.438a.452.452,0,0,1-.4-.226,43.751,43.751,0,0,1-4.9-25.305.452.452,0,0,1,.5-.407.443.443,0,0,1,.407.488,42.712,42.712,0,0,0,4.79,24.826.461.461,0,0,1-.181.615A.452.452,0,0,1,122.539,109.438Z" transform="translate(-116.989 -19.459)" fill="#407bff"/>
        <path id="Path_144" data-name="Path 144" d="M285.279,103.246h-.117a.452.452,0,0,1-.316-.56,62.811,62.811,0,0,0-4.591-45.3.461.461,0,0,1,.19-.615.47.47,0,0,1,.615.19,63.814,63.814,0,0,1,4.663,45.965A.47.47,0,0,1,285.279,103.246Z" transform="translate(-132.697 -16.883)" fill="#407bff"/>
        <path id="Path_145" data-name="Path 145" d="M280.282,120.929a.38.38,0,0,1-.217-.063.461.461,0,0,1-.181-.615,51.71,51.71,0,0,0,3.154-6.742.452.452,0,0,1,.587-.262.461.461,0,0,1,.262.587,54.755,54.755,0,0,1-3.208,6.86A.461.461,0,0,1,280.282,120.929Z" transform="translate(-132.661 -22.319)" fill="#407bff"/>
        <path id="Path_146" data-name="Path 146" d="M295.022,89.956h0a.452.452,0,0,1-.425-.479,52.861,52.861,0,0,0-5.7-27.447.453.453,0,0,1,.8-.416,53.684,53.684,0,0,1,5.793,27.917.443.443,0,0,1-.47.425Z" transform="translate(-133.529 -17.329)" fill="#407bff"/>
        <path id="Path_147" data-name="Path 147" d="M288.951,115.24a.488.488,0,0,1-.226-.054.443.443,0,0,1-.172-.615A47.672,47.672,0,0,0,293.868,99.1a.458.458,0,0,1,.9.154,48.534,48.534,0,0,1-5.423,15.762A.452.452,0,0,1,288.951,115.24Z" transform="translate(-133.495 -20.924)" fill="#407bff"/>
        <path id="Path_148" data-name="Path 148" d="M300.791,74.06a.461.461,0,0,1-.434-.325,39.933,39.933,0,0,0-2.883-7.094.453.453,0,0,1,.8-.416,41.394,41.394,0,0,1,2.946,7.23.443.443,0,0,1-.307.56.289.289,0,0,1-.127.045Z" transform="translate(-134.354 -17.773)" fill="#407bff"/>
        <path id="Path_149" data-name="Path 149" d="M297.612,109.136a.452.452,0,0,1-.217-.054.461.461,0,0,1-.181-.615,42.931,42.931,0,0,0,4.437-27.574.461.461,0,0,1,.371-.524.47.47,0,0,1,.524.38,43.864,43.864,0,0,1-4.519,28.161A.452.452,0,0,1,297.612,109.136Z" transform="translate(-134.329 -19.158)" fill="#407bff"/>
        <path id="Path_150" data-name="Path 150" d="M190.575,15.9a.456.456,0,1,1-.127-.9,64.863,64.863,0,0,1,31.532-.786.463.463,0,1,1-.2.9,64.059,64.059,0,0,0-31.089.768Z" transform="translate(-124.021 -12.64)" fill="#407bff"/>
        <path id="Path_151" data-name="Path 151" d="M177.472,21.2a.452.452,0,0,1-.226-.84,53.648,53.648,0,0,1,6.832-3.208.452.452,0,1,1,.325.84,53.638,53.638,0,0,0-6.715,3.154A.479.479,0,0,1,177.472,21.2Z" transform="translate(-122.767 -13.07)" fill="#407bff"/>
        <circle id="Ellipse_4" data-name="Ellipse 4" cx="64.348" cy="64.348" r="64.348" transform="translate(20.037 4.664)" fill="#407bff"/>
        <circle id="Ellipse_5" data-name="Ellipse 5" cx="64.348" cy="64.348" r="64.348" transform="translate(20.037 4.664)" fill="#fff" opacity="0.9"/>
        <path id="Path_152" data-name="Path 152" d="M203.591,147.733a65.251,65.251,0,1,1,65.251-65.251A65.251,65.251,0,0,1,203.591,147.733Zm0-128.7a63.444,63.444,0,1,0,63.444,63.444,63.444,63.444,0,0,0-63.444-63.444Z" transform="translate(-119.044 -13.081)" fill="#407bff"/>
        <g id="Group_3" data-name="Group 3" transform="translate(20.037 4.664)" clip-path="url(#clip-path)">
          <path id="Path_153" data-name="Path 153" d="M173.554,60.576c-.19-.47-4.519-11.6,1.627-20.181,4.672-6.57,13.981-9.589,27.537-8.983,10.936.488,18.346,3.4,22.052,8.649,4.437,6.326,2.124,13.791,1.256,16.6l-.1.334L221.6,55.678l.108-.352c.759-2.44,2.531-8.134-.633-12.653-2.856-4.049-9.092-6.326-18.554-6.742-11.984-.533-19.964,1.853-23.7,7.094-4.7,6.6-1.148,15.8-1.112,15.9Z" transform="translate(-142.311 -19.103)" fill="#263238"/>
          <path id="Path_154" data-name="Path 154" d="M226,68.749c0,6.516,2.341,11.8,5.233,11.8s5.233-5.287,5.233-11.8S234.134,57,231.26,57,226,62.26,226,68.749Z" transform="translate(-147.518 -21.573)" fill="#263238"/>
          <path id="Path_155" data-name="Path 155" d="M226,68.749c0,6.516,2.341,11.8,5.233,11.8s5.233-5.287,5.233-11.8S234.134,57,231.26,57,226,62.26,226,68.749Z" transform="translate(-147.518 -21.573)" fill="#fff" opacity="0.2"/>
          <ellipse id="Ellipse_6" data-name="Ellipse 6" cx="6.823" cy="15.409" rx="6.823" ry="15.409" transform="translate(72.743 31.803)" fill="#263238"/>
          <path id="Path_156" data-name="Path 156" d="M246.5,142.3l-11.9,24.582H163.621l-7.971-34.65c0-3.3,11.125-9.038,14-10.682,6.579-3.778,14.216-5.486,21.8-5.82s15.364-.072,22.657,1.871c12.409,3.3,17.931,7.546,17.931,7.546C236.826,129.672,242.356,131.4,246.5,142.3Z" transform="translate(-140.747 -27.213)" fill="#407bff"/>
          <path id="Path_157" data-name="Path 157" d="M210.2,100.029c-2.612,6.823-3.344,14.207,9.291,17.3,0,0,6.127,9.408-13.8,10.845-21.283,1.473-21.79-12.806-21.79-12.806,8.351-5.54,6.986-22.1,5.26-31.125Z" transform="translate(-143.466 -24.194)" fill="#ff8b7b"/>
          <path id="Path_158" data-name="Path 158" d="M195.4,101.11c.325,3.958,6.724,10.366,14.343,6.814a23.669,23.669,0,0,1,1.383-4.98L198.653,93.6C198.2,94.513,195.3,98.95,195.4,101.11Z" transform="translate(-144.572 -25.095)" opacity="0.2"/>
          <path id="Path_159" data-name="Path 159" d="M180.83,60.041c1.482,15.472,1.554,24.618,9.67,32.327,12.165,11.622,31.125,3.823,34.343-11.749,2.856-14.071,0-37.054-15.445-42.712a21.247,21.247,0,0,0-28.541,22.178Z" transform="translate(-143.161 -19.607)" fill="#ff8b7b"/>
          <path id="Path_160" data-name="Path 160" d="M175.974,73.243a14.731,14.731,0,0,0,6.7,9.119c4.446,2.648,8.025-1.012,7.926-5.92-.09-4.437-2.558-11.1-7.61-11.749S174.818,68.58,175.974,73.243Z" transform="translate(-142.68 -22.307)" fill="#ff8b7b"/>
          <path id="Path_161" data-name="Path 161" d="M207.069,66.193c0,1.265.75,2.268,1.563,2.223s1.464-1.057,1.428-2.332-.75-2.268-1.491-2.3S206.951,64.973,207.069,66.193Z" transform="translate(-145.695 -22.225)" fill="#263238"/>
          <path id="Path_162" data-name="Path 162" d="M222.85,65.686c0,1.274.741,2.277,1.482,2.287s1.464-1.066,1.428-2.341-.75-2.268-1.591-2.232S222.832,64.4,222.85,65.686Z" transform="translate(-147.214 -22.189)" fill="#263238"/>
          <path id="Path_163" data-name="Path 163" d="M217.87,66.78a45.6,45.6,0,0,0,6.444,10.6,7.293,7.293,0,0,1-6.055,1.374Z" transform="translate(-146.735 -22.514)" fill="#ff5652"/>
          <path id="Path_164" data-name="Path 164" d="M227.252,58.362a.732.732,0,0,0,.072-1.039.66.66,0,0,0-.443-.244,7.357,7.357,0,0,0-6.462,2.061.741.741,0,0,0,.045,1.048h0a.759.759,0,0,0,1.057-.081,5.847,5.847,0,0,1,5.133-1.654.705.705,0,0,0,.6-.09Z" transform="translate(-146.962 -21.57)" fill="#263238"/>
          <path id="Path_165" data-name="Path 165" d="M211.5,60.1a.732.732,0,0,0,.542-.9.687.687,0,0,0-.28-.425,7.357,7.357,0,0,0-6.688-1.148.741.741,0,0,0-.443.9h0a.759.759,0,0,0,.967.425,5.847,5.847,0,0,1,5.323.9A.7.7,0,0,0,211.5,60.1Z" transform="translate(-145.458 -21.599)" fill="#263238"/>
          <path id="Path_166" data-name="Path 166" d="M220.783,85.288s-4.772-1.573-17.9-2.178c1.961,4.971,5.16,9.038,11.884,9.363S220.783,85.288,220.783,85.288Z" transform="translate(-145.293 -24.086)" fill="#263238"/>
          <path id="Path_167" data-name="Path 167" d="M211.783,89a11.749,11.749,0,0,1,7.519,2.711,5.486,5.486,0,0,1-4.04,1.265,11.568,11.568,0,0,1-7.492-2.657A5.423,5.423,0,0,1,211.783,89Z" transform="translate(-145.763 -24.651)" fill="#ff5652"/>
          <path id="Path_168" data-name="Path 168" d="M220.225,85.113a2.585,2.585,0,0,1-1.807,2.332,60.977,60.977,0,0,1-11.695-1.808,4.465,4.465,0,0,1-3.163-2.558A89.753,89.753,0,0,1,220.225,85.113Z" transform="translate(-145.358 -24.083)" fill="#fff"/>
          <path id="Path_169" data-name="Path 169" d="M210.54,154.446,215.2,140.89,227.1,152.738s-6.164,6.543-12.806,7.122Z" transform="translate(-146.03 -29.646)" fill="#ff8b7b"/>
          <path id="Path_170" data-name="Path 170" d="M228.241,133.233l6.209,9.038a1.021,1.021,0,0,1-.045,1.211l-6.76,8.4L215.76,140l11.107-7.049A1,1,0,0,1,228.241,133.233Z" transform="translate(-146.532 -28.867)" fill="#ff8b7b"/>
          <path id="Path_171" data-name="Path 171" d="M211.27,151.911l.244-16.683a.687.687,0,0,1,.678-.678h1.88a.7.7,0,0,1,.687.542l2.133,9.526Z" transform="translate(-146.1 -29.036)" fill="#ff8b7b"/>
          <path id="Path_172" data-name="Path 172" d="M209.78,153.75l-13.99,13.791h13.33l6.055-6.9Z" transform="translate(-144.61 -30.884)" fill="#ff8b7b"/>
          <ellipse id="Ellipse_7" data-name="Ellipse 7" cx="6.823" cy="15.409" rx="6.823" ry="15.409" transform="translate(30.728 31.803)" fill="#263238"/>
          <path id="Path_173" data-name="Path 173" d="M180.756,68.749c0,6.516-2.341,11.8-5.224,11.8S170.3,75.3,170.3,68.749,172.641,57,175.533,57,180.756,62.26,180.756,68.749Z" transform="translate(-142.157 -21.573)" fill="#263238"/>
          <path id="Path_174" data-name="Path 174" d="M180.756,68.749c0,6.516-2.341,11.8-5.224,11.8S170.3,75.3,170.3,68.749,172.641,57,175.533,57,180.756,62.26,180.756,68.749Z" transform="translate(-142.157 -21.573)" fill="#fff" opacity="0.2"/>
          <path id="Path_175" data-name="Path 175" d="M246.7,136.61c-10.8,0-16.656-8.387-16.927-24.266a.9.9,0,1,1,1.807,0c.253,14.921,5.341,22.485,15.12,22.485,9.941,0,14.876-7.357,15.111-22.485a.9.9,0,0,1,.9-.9h0a.9.9,0,0,1,.9.9C263.363,128.449,257.669,136.61,246.7,136.61Z" transform="translate(-147.881 -26.812)" fill="#263238"/>
          <path id="Path_176" data-name="Path 176" d="M262.712,113.238H230.674a.9.9,0,0,1,0-1.808h32.038a.9.9,0,1,1,0,1.808Z" transform="translate(-147.881 -26.811)" fill="#263238"/>
          <path id="Path_177" data-name="Path 177" d="M256.356,102.983h-17.6L239.3,83.95l.352-.172a17.37,17.37,0,0,1,15.789,0l.371.172Z" transform="translate(-148.746 -23.967)" fill="#263238"/>
          <g id="Group_2" data-name="Group 2" transform="translate(90.014 57.913)" opacity="0.1">
            <path id="Path_178" data-name="Path 178" d="M256.356,102.983h-17.6L239.3,83.95l.352-.172a17.37,17.37,0,0,1,15.789,0l.371.172Z" transform="translate(-238.76 -81.88)" fill="#fafafa"/>
          </g>
          <path id="Path_179" data-name="Path 179" d="M238.76,105.23h17.6l-.542,18.979-.371.19a17.425,17.425,0,0,1-15.789,0l-.352-.19Z" transform="translate(-148.746 -26.214)" fill="#263238"/>
          <rect id="Rectangle_13" data-name="Rectangle 13" width="18.599" height="3.199" transform="translate(89.544 77.524)" fill="#263238"/>
          <rect id="Rectangle_14" data-name="Rectangle 14" width="18.599" height="3.199" transform="translate(89.544 77.524)" fill="#fff" opacity="0.12"/>
          <path id="Path_180" data-name="Path 180" d="M250.387,114.65a2.765,2.765,0,1,1,.6-2.034,2.766,2.766,0,0,1-.6,2.034Z" transform="translate(-149.392 -26.687)" fill="#263238"/>
          <circle id="Ellipse_8" data-name="Ellipse 8" cx="2.765" cy="2.765" r="2.765" transform="translate(96.078 83.462)" fill="#fff" opacity="0.2"/>
          <path id="Path_181" data-name="Path 181" d="M249.714,111.706a.6.6,0,0,1-.6.587.587.587,0,0,1-.587-.587.6.6,0,0,1,.588-.6A.605.605,0,0,1,249.714,111.706Z" transform="translate(-149.686 -26.78)" fill="#407bff"/>
          <path id="Path_182" data-name="Path 182" d="M248.4,162.731a.9.9,0,0,1-.9-.9V138.194a.9.9,0,0,1,1.808,0v23.633A.9.9,0,0,1,248.4,162.731Z" transform="translate(-149.587 -29.3)" fill="#263238"/>
        </g>
      </g>
    </g>
  </g>
</svg>
