<svg xmlns="http://www.w3.org/2000/svg" width="22" height="22" viewBox="0 0 22 22"><defs><style>.a{fill:#d4d4d4;}</style></defs><path class="a" d="M11,0A11,11,0,1,0,22,11,11.012,11.012,0,0,0,11,0Zm0,20.3A9.3,9.3,0,1,1,20.3,11,9.307,9.307,0,0,1,11,20.3Z"/><g transform="translate(5.656 5.582)"><path class="a" d="M146.82,139.692h-3.563v-3.563a.891.891,0,1,0-1.781,0v3.563h-3.563a.891.891,0,1,0,0,1.781h3.563v3.563a.891.891,0,1,0,1.781,0v-3.563h3.563a.891.891,0,0,0,0-1.781Z" transform="translate(-137.022 -135.238)"/></g></svg>