<svg xmlns="http://www.w3.org/2000/svg" xmlns:xlink="http://www.w3.org/1999/xlink" width="494" height="219" viewBox="0 0 494 219">
  <defs>
    <clipPath id="clip-path">
      <rect id="Mask" width="494" height="219" rx="8" fill="#212228"/>
    </clipPath>
    <clipPath id="clip-path-2">
      <rect id="Mask-2" data-name="Mask" width="108.654" height="109.325" transform="translate(0.417)" fill="none"/>
    </clipPath>
  </defs>
  <g id="Shapes" clip-path="url(#clip-path)">
    <g id="Shapes-2" data-name="Shapes" transform="translate(112 -74)" opacity="0.03" style="mix-blend-mode: luminosity;isolation: isolate">
      <rect id="Rectangle" width="109.36" height="109.325" transform="translate(255.473)" fill="#d8d8d8"/>
      <path id="Rectangle_Copy_5" data-name="Rectangle Copy 5" d="M0,0,109.36,109.325H0Z" transform="translate(255.473 121.87)" fill="#d8d8d8"/>
      <path id="Rectangle_Copy_7" data-name="Rectangle Copy 7" d="M0,0,109.36,109.325H0Z" transform="translate(500.189 244.636)" fill="#6f6d6d"/>
      <path id="Rectangle_Copy_6" data-name="Rectangle Copy 6" d="M0,0-109.36,109.325H0Z" transform="translate(109.36 121.87)" fill="#d8d8d8"/>
      <rect id="Rectangle_Copy_3" data-name="Rectangle Copy 3" width="109.36" height="109.325" fill="#9d9d9d"/>
      <g id="Path_3_Path_3_Copy_Path_3_Copy_2_Path_3_Copy_3_Path_3_Copy_4_Path_3_Copy_5_Path_3_Copy_6_Path_3_Copy_7_Path_3_Copy_8_Path_3_Copy_9_Path_3_Copy_10_Path_3_Copy_11_Path_3_Copy_12_Mask" data-name="Path 3 + Path 3 Copy + Path 3 Copy 2 + Path 3 Copy 3 + Path 3 Copy 4 + Path 3 Copy 5 + Path 3 Copy 6 + Path 3 Copy 7 + Path 3 Copy 8 + Path 3 Copy 9 + Path 3 Copy 10 + Path 3 Copy 11 + Path 3 Copy 12 Mask" transform="translate(379.176)">
        <rect id="Mask-4" data-name="Mask" width="108.654" height="109.325" transform="translate(0.417)" fill="none"/>
        <g id="Path_3_Path_3_Copy_Path_3_Copy_2_Path_3_Copy_3_Path_3_Copy_4_Path_3_Copy_5_Path_3_Copy_6_Path_3_Copy_7_Path_3_Copy_8_Path_3_Copy_9_Path_3_Copy_10_Path_3_Copy_11_Path_3_Copy_12_Mask-2" data-name="Path 3 + Path 3 Copy + Path 3 Copy 2 + Path 3 Copy 3 + Path 3 Copy 4 + Path 3 Copy 5 + Path 3 Copy 6 + Path 3 Copy 7 + Path 3 Copy 8 + Path 3 Copy 9 + Path 3 Copy 10 + Path 3 Copy 11 + Path 3 Copy 12 Mask" clip-path="url(#clip-path-2)">
          <path id="Path_3" data-name="Path 3" d="M129.363,0,0,132.025" transform="translate(-106.155 -13.666)" fill="none" stroke="#979797" stroke-miterlimit="10" stroke-width="1"/>
          <path id="Path_3_Copy" data-name="Path 3 Copy" d="M129.363,0,0,132.025" transform="translate(-87.865 -13.666)" fill="none" stroke="#979797" stroke-miterlimit="10" stroke-width="1"/>
          <path id="Path_3_Copy_2" data-name="Path 3 Copy 2" d="M129.363,0,0,132.025" transform="translate(-70.888 -13.666)" fill="none" stroke="#979797" stroke-miterlimit="10" stroke-width="1"/>
          <path id="Path_3_Copy_3" data-name="Path 3 Copy 3" d="M129.363,0,0,132.025" transform="translate(-53.91 -13.666)" fill="none" stroke="#979797" stroke-miterlimit="10" stroke-width="1"/>
          <path id="Path_3_Copy_4" data-name="Path 3 Copy 4" d="M129.363,0,0,132.025" transform="translate(-36.933 -13.666)" fill="none" stroke="#979797" stroke-miterlimit="10" stroke-width="1"/>
          <path id="Path_3_Copy_5" data-name="Path 3 Copy 5" d="M129.363,0,0,132.025" transform="translate(-19.956 -13.666)" fill="none" stroke="#979797" stroke-miterlimit="10" stroke-width="1"/>
          <path id="Path_3_Copy_6" data-name="Path 3 Copy 6" d="M129.363,0,0,132.025" transform="translate(-2.979 -13.666)" fill="none" stroke="#979797" stroke-miterlimit="10" stroke-width="1"/>
          <path id="Path_3_Copy_7" data-name="Path 3 Copy 7" d="M129.363,0,0,132.025" transform="translate(13.998 -13.666)" fill="none" stroke="#979797" stroke-miterlimit="10" stroke-width="1"/>
          <path id="Path_3_Copy_8" data-name="Path 3 Copy 8" d="M129.363,0,0,132.025" transform="translate(30.976 -13.666)" fill="none" stroke="#979797" stroke-miterlimit="10" stroke-width="1"/>
          <path id="Path_3_Copy_9" data-name="Path 3 Copy 9" d="M129.363,0,0,132.025" transform="translate(47.953 -13.666)" fill="none" stroke="#979797" stroke-miterlimit="10" stroke-width="1"/>
          <path id="Path_3_Copy_10" data-name="Path 3 Copy 10" d="M129.363,0,0,132.025" transform="translate(64.93 -13.666)" fill="none" stroke="#979797" stroke-miterlimit="10" stroke-width="1"/>
          <path id="Path_3_Copy_11" data-name="Path 3 Copy 11" d="M129.363,0,0,132.025" transform="translate(81.907 -13.666)" fill="none" stroke="#979797" stroke-miterlimit="10" stroke-width="1"/>
          <path id="Path_3_Copy_12" data-name="Path 3 Copy 12" d="M129.363,0,0,132.025" transform="translate(98.884 -13.666)" fill="none" stroke="#979797" stroke-miterlimit="10" stroke-width="1"/>
        </g>
      </g>
      <g id="Path_3_Path_3_Copy_Path_3_Copy_2_Path_3_Copy_3_Path_3_Copy_4_Path_3_Copy_5_Path_3_Copy_6_Path_3_Copy_7_Path_3_Copy_8_Path_3_Copy_9_Path_3_Copy_10_Path_3_Copy_11_Path_3_Copy_12_Mask_Copy" data-name="Path 3 + Path 3 Copy + Path 3 Copy 2 + Path 3 Copy 3 + Path 3 Copy 4 + Path 3 Copy 5 + Path 3 Copy 6 + Path 3 Copy 7 + Path 3 Copy 8 + Path 3 Copy 9 + Path 3 Copy 10 + Path 3 Copy 11 + Path 3 Copy 12 Mask Copy" transform="translate(255.043 356.219) rotate(-90)">
        <rect id="Mask-5" data-name="Mask" width="108.654" height="109.325" transform="translate(0.417)" fill="none"/>
        <g id="Path_3_Path_3_Copy_Path_3_Copy_2_Path_3_Copy_3_Path_3_Copy_4_Path_3_Copy_5_Path_3_Copy_6_Path_3_Copy_7_Path_3_Copy_8_Path_3_Copy_9_Path_3_Copy_10_Path_3_Copy_11_Path_3_Copy_12_Mask_Copy-2" data-name="Path 3 + Path 3 Copy + Path 3 Copy 2 + Path 3 Copy 3 + Path 3 Copy 4 + Path 3 Copy 5 + Path 3 Copy 6 + Path 3 Copy 7 + Path 3 Copy 8 + Path 3 Copy 9 + Path 3 Copy 10 + Path 3 Copy 11 + Path 3 Copy 12 Mask Copy" clip-path="url(#clip-path-2)">
          <path id="Path_3-2" data-name="Path 3" d="M129.363,0,0,132.025" transform="translate(-106.155 -13.666)" fill="none" stroke="#979797" stroke-miterlimit="10" stroke-width="1"/>
          <path id="Path_3_Copy-2" data-name="Path 3 Copy" d="M129.363,0,0,132.025" transform="translate(-87.865 -13.666)" fill="none" stroke="#979797" stroke-miterlimit="10" stroke-width="1"/>
          <path id="Path_3_Copy_2-2" data-name="Path 3 Copy 2" d="M129.363,0,0,132.025" transform="translate(-70.888 -13.666)" fill="none" stroke="#979797" stroke-miterlimit="10" stroke-width="1"/>
          <path id="Path_3_Copy_3-2" data-name="Path 3 Copy 3" d="M129.363,0,0,132.025" transform="translate(-53.91 -13.666)" fill="none" stroke="#979797" stroke-miterlimit="10" stroke-width="1"/>
          <path id="Path_3_Copy_4-2" data-name="Path 3 Copy 4" d="M129.363,0,0,132.025" transform="translate(-36.933 -13.666)" fill="none" stroke="#979797" stroke-miterlimit="10" stroke-width="1"/>
          <path id="Path_3_Copy_5-2" data-name="Path 3 Copy 5" d="M129.363,0,0,132.025" transform="translate(-19.956 -13.666)" fill="none" stroke="#979797" stroke-miterlimit="10" stroke-width="1"/>
          <path id="Path_3_Copy_6-2" data-name="Path 3 Copy 6" d="M129.363,0,0,132.025" transform="translate(-2.979 -13.666)" fill="none" stroke="#979797" stroke-miterlimit="10" stroke-width="1"/>
          <path id="Path_3_Copy_7-2" data-name="Path 3 Copy 7" d="M129.363,0,0,132.025" transform="translate(13.998 -13.666)" fill="none" stroke="#979797" stroke-miterlimit="10" stroke-width="1"/>
          <path id="Path_3_Copy_8-2" data-name="Path 3 Copy 8" d="M129.363,0,0,132.025" transform="translate(30.976 -13.666)" fill="none" stroke="#979797" stroke-miterlimit="10" stroke-width="1"/>
          <path id="Path_3_Copy_9-2" data-name="Path 3 Copy 9" d="M129.363,0,0,132.025" transform="translate(47.953 -13.666)" fill="none" stroke="#979797" stroke-miterlimit="10" stroke-width="1"/>
          <path id="Path_3_Copy_10-2" data-name="Path 3 Copy 10" d="M129.363,0,0,132.025" transform="translate(64.93 -13.666)" fill="none" stroke="#979797" stroke-miterlimit="10" stroke-width="1"/>
          <path id="Path_3_Copy_11-2" data-name="Path 3 Copy 11" d="M129.363,0,0,132.025" transform="translate(81.907 -13.666)" fill="none" stroke="#979797" stroke-miterlimit="10" stroke-width="1"/>
          <path id="Path_3_Copy_12-2" data-name="Path 3 Copy 12" d="M129.363,0,0,132.025" transform="translate(98.884 -13.666)" fill="none" stroke="#979797" stroke-miterlimit="10" stroke-width="1"/>
        </g>
      </g>
      <rect id="Rectangle_Copy_4" data-name="Rectangle Copy 4" width="109.36" height="109.325" rx="16" transform="translate(132.667 121.87)" fill="#9d9d9d"/>
      <path id="Rectangle_Copy_2" data-name="Rectangle Copy 2" d="M0,0H9.325a100,100,0,0,1,100,100v9.36a0,0,0,0,1,0,0H0a0,0,0,0,1,0,0V0A0,0,0,0,1,0,0Z" transform="translate(377.383 353.961) rotate(-90)" fill="#d8d8d8"/>
    </g>
  </g>
</svg>
