<svg xmlns="http://www.w3.org/2000/svg" xmlns:xlink="http://www.w3.org/1999/xlink" width="95.094" height="75.969" viewBox="0 0 95.094 75.969">
  <defs>
    <clipPath id="clip-path">
      <rect id="Mask" width="17" height="17" fill="none"/>
    </clipPath>
  </defs>
  <g id="Group_5" data-name="Group 5" opacity="0.615" style="mix-blend-mode: luminosity;isolation: isolate">
    <rect id="Rectangle" width="17" height="17" transform="translate(39.844)" fill="#d8d8d8"/>
    <path id="Rectangle_Copy_5" data-name="Rectangle Copy 5" d="M0,0,17,17H0Z" transform="translate(39.844 19.125)" fill="#d8d8d8"/>
    <path id="Rectangle_Copy_7" data-name="Rectangle Copy 7" d="M0,0,17,17H0Z" transform="translate(78.094 38.25)" fill="#6f6d6d"/>
    <path id="Rectangle_Copy_6" data-name="Rectangle Copy 6" d="M7,0-10,17H7Z" transform="translate(10 19.125)" fill="#d8d8d8"/>
    <rect id="Rectangle_Copy_3" data-name="Rectangle Copy 3" width="17" height="17" fill="#9d9d9d"/>
    <g id="Path_3_Path_3_Copy_Path_3_Copy_2_Path_3_Copy_3_Path_3_Copy_4_Path_3_Copy_5_Path_3_Copy_6_Path_3_Copy_7_Path_3_Copy_8_Path_3_Copy_9_" data-name="Path 3 + Path 3 Copy + Path 3 Copy 2 + Path 3 Copy 3 + Path 3 Copy 4 + Path 3 Copy 5 + Path 3 Copy 6 + Path 3 Copy 7 + Path 3 Copy 8 + Path 3 Copy 9 +" transform="translate(59.174)">
      <rect id="Mask-3" data-name="Mask" width="17" height="17" fill="none"/>
      <g id="Path_3_Path_3_Copy_Path_3_Copy_2_Path_3_Copy_3_Path_3_Copy_4_Path_3_Copy_5_Path_3_Copy_6_Path_3_Copy_7_Path_3_Copy_8_Path_3_Copy_9_2" data-name="Path 3 + Path 3 Copy + Path 3 Copy 2 + Path 3 Copy 3 + Path 3 Copy 4 + Path 3 Copy 5 + Path 3 Copy 6 + Path 3 Copy 7 + Path 3 Copy 8 + Path 3 Copy 9 +" clip-path="url(#clip-path)">
        <path id="Path_3" data-name="Path 3" d="M20.24,0,0,20.53" transform="translate(-16.674 -2.125)" fill="none" stroke="#979797" stroke-miterlimit="10" stroke-width="0.5"/>
        <path id="Path_3_Copy" data-name="Path 3 Copy" d="M20.24,0,0,20.53" transform="translate(-13.813 -2.125)" fill="none" stroke="#979797" stroke-miterlimit="10" stroke-width="0.5"/>
        <path id="Path_3_Copy_2" data-name="Path 3 Copy 2" d="M20.24,0,0,20.53" transform="translate(-11.156 -2.125)" fill="none" stroke="#979797" stroke-miterlimit="10" stroke-width="0.5"/>
        <path id="Path_3_Copy_3" data-name="Path 3 Copy 3" d="M20.24,0,0,20.53" transform="translate(-8.5 -2.125)" fill="none" stroke="#979797" stroke-miterlimit="10" stroke-width="0.5"/>
        <path id="Path_3_Copy_4" data-name="Path 3 Copy 4" d="M20.24,0,0,20.53" transform="translate(-5.844 -2.125)" fill="none" stroke="#979797" stroke-miterlimit="10" stroke-width="0.5"/>
        <path id="Path_3_Copy_5" data-name="Path 3 Copy 5" d="M20.24,0,0,20.53" transform="translate(-3.188 -2.125)" fill="none" stroke="#979797" stroke-miterlimit="10" stroke-width="0.5"/>
        <path id="Path_3_Copy_6" data-name="Path 3 Copy 6" d="M20.24,0,0,20.53" transform="translate(-0.531 -2.125)" fill="none" stroke="#979797" stroke-miterlimit="10" stroke-width="0.5"/>
        <path id="Path_3_Copy_7" data-name="Path 3 Copy 7" d="M20.24,0,0,20.53" transform="translate(2.125 -2.125)" fill="none" stroke="#979797" stroke-miterlimit="10" stroke-width="0.5"/>
        <path id="Path_3_Copy_8" data-name="Path 3 Copy 8" d="M20.24,0,0,20.53" transform="translate(4.781 -2.125)" fill="none" stroke="#979797" stroke-miterlimit="10" stroke-width="0.5"/>
        <path id="Path_3_Copy_9" data-name="Path 3 Copy 9" d="M20.24,0,0,20.53" transform="translate(7.438 -2.125)" fill="none" stroke="#979797" stroke-miterlimit="10" stroke-width="0.5"/>
        <path id="Path_3_Copy_10" data-name="Path 3 Copy 10" d="M20.24,0,0,20.53" transform="translate(10.094 -2.125)" fill="none" stroke="#979797" stroke-miterlimit="10" stroke-width="0.5"/>
        <path id="Path_3_Copy_11" data-name="Path 3 Copy 11" d="M20.24,0,0,20.53" transform="translate(12.75 -2.125)" fill="none" stroke="#979797" stroke-miterlimit="10" stroke-width="0.5"/>
        <path id="Path_3_Copy_12" data-name="Path 3 Copy 12" d="M20.24,0,0,20.53" transform="translate(15.406 -2.125)" fill="none" stroke="#979797" stroke-miterlimit="10" stroke-width="0.5"/>
      </g>
    </g>
    <g id="Path_3_Path_3_Copy_Path_3_Copy_2_Path_3_Copy_3_Path_3_Copy_4_Path_3_Copy_5_Path_3_Copy_6_Path_3_Copy_7_Path_3_Copy_8_Path_3_Copy_9_3" data-name="Path 3 + Path 3 Copy + Path 3 Copy 2 + Path 3 Copy 3 + Path 3 Copy 4 + Path 3 Copy 5 + Path 3 Copy 6 + Path 3 Copy 7 + Path 3 Copy 8 + Path 3 Copy 9 +" transform="translate(39.844 55.576) rotate(-90)">
      <rect id="Mask-4" data-name="Mask" width="17" height="17" fill="none"/>
      <g id="Path_3_Path_3_Copy_Path_3_Copy_2_Path_3_Copy_3_Path_3_Copy_4_Path_3_Copy_5_Path_3_Copy_6_Path_3_Copy_7_Path_3_Copy_8_Path_3_Copy_9_4" data-name="Path 3 + Path 3 Copy + Path 3 Copy 2 + Path 3 Copy 3 + Path 3 Copy 4 + Path 3 Copy 5 + Path 3 Copy 6 + Path 3 Copy 7 + Path 3 Copy 8 + Path 3 Copy 9 +" clip-path="url(#clip-path)">
        <path id="Path_3-2" data-name="Path 3" d="M20.24,0,0,20.53" transform="translate(-16.674 -2.125)" fill="none" stroke="#979797" stroke-miterlimit="10" stroke-width="0.5"/>
        <path id="Path_3_Copy-2" data-name="Path 3 Copy" d="M20.24,0,0,20.53" transform="translate(-13.813 -2.125)" fill="none" stroke="#979797" stroke-miterlimit="10" stroke-width="0.5"/>
        <path id="Path_3_Copy_2-2" data-name="Path 3 Copy 2" d="M20.24,0,0,20.53" transform="translate(-11.156 -2.125)" fill="none" stroke="#979797" stroke-miterlimit="10" stroke-width="0.5"/>
        <path id="Path_3_Copy_3-2" data-name="Path 3 Copy 3" d="M20.24,0,0,20.53" transform="translate(-8.5 -2.125)" fill="none" stroke="#979797" stroke-miterlimit="10" stroke-width="0.5"/>
        <path id="Path_3_Copy_4-2" data-name="Path 3 Copy 4" d="M20.24,0,0,20.53" transform="translate(-5.844 -2.125)" fill="none" stroke="#979797" stroke-miterlimit="10" stroke-width="0.5"/>
        <path id="Path_3_Copy_5-2" data-name="Path 3 Copy 5" d="M20.24,0,0,20.53" transform="translate(-3.188 -2.125)" fill="none" stroke="#979797" stroke-miterlimit="10" stroke-width="0.5"/>
        <path id="Path_3_Copy_6-2" data-name="Path 3 Copy 6" d="M20.24,0,0,20.53" transform="translate(-0.531 -2.125)" fill="none" stroke="#979797" stroke-miterlimit="10" stroke-width="0.5"/>
        <path id="Path_3_Copy_7-2" data-name="Path 3 Copy 7" d="M20.24,0,0,20.53" transform="translate(2.125 -2.125)" fill="none" stroke="#979797" stroke-miterlimit="10" stroke-width="0.5"/>
        <path id="Path_3_Copy_8-2" data-name="Path 3 Copy 8" d="M20.24,0,0,20.53" transform="translate(4.781 -2.125)" fill="none" stroke="#979797" stroke-miterlimit="10" stroke-width="0.5"/>
        <path id="Path_3_Copy_9-2" data-name="Path 3 Copy 9" d="M20.24,0,0,20.53" transform="translate(7.438 -2.125)" fill="none" stroke="#979797" stroke-miterlimit="10" stroke-width="0.5"/>
        <path id="Path_3_Copy_10-2" data-name="Path 3 Copy 10" d="M20.24,0,0,20.53" transform="translate(10.094 -2.125)" fill="none" stroke="#979797" stroke-miterlimit="10" stroke-width="0.5"/>
        <path id="Path_3_Copy_11-2" data-name="Path 3 Copy 11" d="M20.24,0,0,20.53" transform="translate(12.75 -2.125)" fill="none" stroke="#979797" stroke-miterlimit="10" stroke-width="0.5"/>
        <path id="Path_3_Copy_12-2" data-name="Path 3 Copy 12" d="M20.24,0,0,20.53" transform="translate(15.406 -2.125)" fill="none" stroke="#979797" stroke-miterlimit="10" stroke-width="0.5"/>
      </g>
    </g>
    <rect id="Rectangle_Copy_4" data-name="Rectangle Copy 4" width="17" height="17" rx="5" transform="translate(20.719 19.125)" fill="#9d9d9d"/>
    <rect id="Rectangle_Copy_8" data-name="Rectangle Copy 8" width="17" height="17" rx="5" transform="translate(58.438 58.969)" fill="#707070"/>
    <path id="Rectangle_Copy_2" data-name="Rectangle Copy 2" d="M0,0H0A17,17,0,0,1,17,17v0a0,0,0,0,1,0,0H0a0,0,0,0,1,0,0V0A0,0,0,0,1,0,0Z" transform="translate(58.969 55.25) rotate(-90)" fill="#d8d8d8"/>
  </g>
</svg>
