<svg xmlns="http://www.w3.org/2000/svg" xmlns:xlink="http://www.w3.org/1999/xlink" width="83" height="85" viewBox="0 0 83 85">
  <defs>
    <linearGradient id="linear-gradient" x1="0.5" x2="0.5" y2="1" gradientUnits="objectBoundingBox">
      <stop offset="0" stop-color="#21e7d0"/>
      <stop offset="1" stop-color="#037b5d"/>
    </linearGradient>
    <clipPath id="clip-path">
      <circle id="Mask" cx="41.5" cy="41.5" r="41.5" transform="translate(0 0)" fill="url(#linear-gradient)"/>
    </clipPath>
    <clipPath id="clip-path-2">
      <circle id="Mask-2" data-name="Mask" cx="41.5" cy="41.5" r="41.5" fill="url(#linear-gradient)"/>
    </clipPath>
    <clipPath id="clip-path-3">
      <rect id="Mask-3" data-name="Mask" width="83" height="83" rx="1.25" fill="none" stroke="#7e94a1" stroke-miterlimit="10" stroke-width="0.5" opacity="0.204"/>
    </clipPath>
  </defs>
  <g id="innovate" transform="translate(-0.213 2.301)">
    <g id="Image" transform="translate(0.213 -2.301)">
      <g id="topic" transform="translate(0 0)">
        <g id="Image-3" data-name="Image" transform="translate(0 0)">
          <circle id="Mask-4" data-name="Mask" cx="41.5" cy="41.5" r="41.5" fill="url(#linear-gradient)"/>
          <g id="Image-4" data-name="Image" clip-path="url(#clip-path-2)">
            <g id="Clean_Copy_20" data-name="Clean Copy 20" transform="translate(0 0)">
              <g id="Pattern">
                <g id="Mask-5" data-name="Mask" fill="none" stroke="#7e94a1" stroke-miterlimit="10" stroke-width="0.5" opacity="0.204">
                  <rect width="83" height="83" rx="1.25" stroke="none"/>
                  <rect x="0.25" y="0.25" width="82.5" height="82.5" rx="1" fill="none"/>
                </g>
              </g>
              <g id="Pattern-3" data-name="Pattern" transform="translate(11.413 11.413)">
                <circle id="Oval" cx="30.347" cy="30.347" r="30.347" fill="#fff" opacity="0.102"/>
                <path id="Combined_Shape" data-name="Combined Shape" d="M30.346,30.088A30.159,30.159,0,0,1,18.59,27.727a30.246,30.246,0,0,1-9.617-6.443,30.256,30.256,0,0,1-6.517-9.563A30.146,30.146,0,0,1,0,0H60.693a30.143,30.143,0,0,1-2.456,11.721,30.257,30.257,0,0,1-6.517,9.563A30.247,30.247,0,0,1,42.1,27.727,30.16,30.16,0,0,1,30.346,30.088Z" transform="translate(0 30.606)" fill="#fff" opacity="0.228"/>
                <path id="Combined_Shape-2" data-name="Combined Shape" d="M22.566,22.307A22.461,22.461,0,0,1,6.672,15.78,22.325,22.325,0,0,1,0,0H45.131a22.325,22.325,0,0,1-6.672,15.78A22.461,22.461,0,0,1,22.566,22.307Z" transform="translate(7.781 30.991)" fill="#fff" opacity="0.135"/>
                <path id="Combined_Shape-3" data-name="Combined Shape" d="M12.191,11.931A12.2,12.2,0,0,1,3.6,8.44,11.882,11.882,0,0,1,0,0H24.381a11.882,11.882,0,0,1-3.6,8.44A12.2,12.2,0,0,1,12.191,11.931Z" transform="translate(18.157 30.812)" fill="#fff" opacity="0.104"/>
              </g>
            </g>
          </g>
        </g>
      </g>
    </g>
  </g>
</svg>
