<svg xmlns="http://www.w3.org/2000/svg" xmlns:xlink="http://www.w3.org/1999/xlink" width="85" height="85" viewBox="0 0 85 85">
  <defs>
    <linearGradient id="linear-gradient" x1="0.5" x2="0.5" y2="1" gradientUnits="objectBoundingBox">
      <stop offset="0" stop-color="#90fd85"/>
      <stop offset="1" stop-color="#558a18"/>
    </linearGradient>
    <clipPath id="clip-path">
      <circle id="Mask" cx="42.5" cy="42.5" r="42.5" transform="translate(0.187 -0.301)" fill="url(#linear-gradient)"/>
    </clipPath>
    <clipPath id="clip-path-2">
      <circle id="Mask-2" data-name="Mask" cx="42.5" cy="42.5" r="42.5" transform="translate(0.187 -0.242)" fill="url(#linear-gradient)"/>
    </clipPath>
    <clipPath id="clip-path-3">
      <circle id="Mask-3" data-name="Mask" cx="42.5" cy="42.5" r="42.5" fill="url(#linear-gradient)"/>
    </clipPath>
    <clipPath id="clip-path-4">
      <rect id="Mask-4" data-name="Mask" width="85" height="85" rx="1.25" fill="none" stroke="#7e94a1" stroke-miterlimit="10" stroke-width="0.5" opacity="0.204"/>
    </clipPath>
  </defs>
  <g id="Leadership" transform="translate(-0.187 0.301)">
    <g id="topic" transform="translate(0 0)" clip-path="url(#clip-path)">
      <g id="Image" transform="translate(0 -190.059)">
        <circle id="Mask-6" data-name="Mask" cx="42.5" cy="42.5" r="42.5" transform="translate(0.187 -0.242)" fill="url(#linear-gradient)"/>
      </g>
    </g>
    <g id="topic-2" data-name="topic" transform="translate(0.187 -0.301)">
      <circle id="Mask-7" data-name="Mask" cx="42.5" cy="42.5" r="42.5" transform="translate(0 0)" fill="url(#linear-gradient)"/>
      <g id="topic-3" data-name="topic" transform="translate(0 0)" clip-path="url(#clip-path-3)">
        <g id="Clean_Copy_17" data-name="Clean Copy 17" transform="translate(0 0)">
          <g id="Mask-8" data-name="Mask" fill="none" stroke="#7e94a1" stroke-miterlimit="10" stroke-width="0.5" opacity="0.204">
            <rect width="85" height="85" rx="1.25" stroke="none"/>
            <rect x="0.25" y="0.25" width="84.5" height="84.5" rx="1" fill="none"/>
          </g>
          <g id="Clean_Copy_17-2" data-name="Clean Copy 17" clip-path="url(#clip-path-4)">
            <g id="Pattern" transform="translate(8.5 -3.188)">
              <path id="Rectangle" d="M0,0,20.188,20.188H0Z" transform="translate(0 60.563)" fill="#fff" opacity="0.152"/>
              <path id="Rectangle-2" data-name="Rectangle" d="M0,0,20.188,20.188H0Z" transform="translate(20.188 60.563)" fill="#fff" opacity="0.267"/>
              <path id="Rectangle-3" data-name="Rectangle" d="M0,0,20.188,20.188H0Z" transform="translate(40.375 60.563)" fill="#fff" opacity="0.185"/>
              <path id="Rectangle-4" data-name="Rectangle" d="M0,0,20.188,20.188H0Z" transform="translate(40.375 40.375)" fill="#fff" opacity="0.069"/>
              <path id="Rectangle-5" data-name="Rectangle" d="M0,0,20.188,20.188H0Z" transform="translate(60.563 40.375)" fill="#fff" opacity="0.168"/>
              <path id="Rectangle-6" data-name="Rectangle" d="M0,0,20.188,20.188H0Z" transform="translate(0 20.188)" fill="#fff" opacity="0.488"/>
              <path id="Rectangle-7" data-name="Rectangle" d="M0,0,20.188,20.188H0Z" transform="translate(20.188)" fill="#fff" opacity="0.31"/>
            </g>
          </g>
        </g>
        <g id="Image-3" data-name="Image" transform="translate(0 -190.4)">
          <circle id="Mask-9" data-name="Mask" cx="42.5" cy="42.5" r="42.5" fill="url(#linear-gradient)"/>
        </g>
      </g>
    </g>
  </g>
</svg>
