<svg xmlns="http://www.w3.org/2000/svg" xmlns:xlink="http://www.w3.org/1999/xlink" width="85" height="85" viewBox="0 0 85 85">
  <defs>
    <linearGradient id="linear-gradient" x1="0.5" x2="0.5" y2="1" gradientUnits="objectBoundingBox">
      <stop offset="0" stop-color="#f69b61"/>
      <stop offset="1" stop-color="#9c461e"/>
    </linearGradient>
    <linearGradient id="linear-gradient-2" x1="0.5" x2="0.5" y2="1" gradientUnits="objectBoundingBox">
      <stop offset="0" stop-color="#90fd85"/>
      <stop offset="1" stop-color="#558a18"/>
    </linearGradient>
    <clipPath id="clip-path">
      <circle id="Mask" cx="42.5" cy="42.5" r="42.5" transform="translate(0 0)" fill="url(#linear-gradient)"/>
    </clipPath>
    <clipPath id="clip-path-2">
      <circle id="Mask-2" data-name="Mask" cx="42" cy="42" r="42" fill="url(#linear-gradient-2)"/>
    </clipPath>
    <clipPath id="clip-path-3">
      <circle id="Mask-3" data-name="Mask" cx="42.5" cy="42.5" r="42.5" fill="url(#linear-gradient)"/>
    </clipPath>
    <clipPath id="clip-path-4">
      <rect id="Mask-4" data-name="Mask" width="85" height="85" rx="1.25" fill="none" stroke="#7e94a1" stroke-miterlimit="10" stroke-width="0.5" opacity="0.204"/>
    </clipPath>
  </defs>
  <g id="personal_finance" data-name="personal finance" transform="translate(-0.213 -0.4)">
    <g id="topic" transform="translate(0.213 0.4)" clip-path="url(#clip-path)">
      <g id="Image" transform="translate(0 -192.262)">
        <circle id="Mask-6" data-name="Mask" cx="42" cy="42" r="42" fill="url(#linear-gradient-2)"/>
      </g>
    </g>
    <g id="topic-2" data-name="topic" transform="translate(0.213 0.4)">
      <circle id="Mask-7" data-name="Mask" cx="42.5" cy="42.5" r="42.5" transform="translate(0 0)" fill="url(#linear-gradient)"/>
      <g id="topic-3" data-name="topic" transform="translate(0 0)" clip-path="url(#clip-path-3)">
        <g id="Clean_Copy_13" data-name="Clean Copy 13" transform="translate(0 0)">
          <g id="Mask-8" data-name="Mask" fill="none" stroke="#7e94a1" stroke-miterlimit="10" stroke-width="0.5" opacity="0.204">
            <rect width="85" height="85" rx="1.25" stroke="none"/>
            <rect x="0.25" y="0.25" width="84.5" height="84.5" rx="1" fill="none"/>
          </g>
          <g id="Clean_Copy_13-2" data-name="Clean Copy 13" clip-path="url(#clip-path-4)">
            <g id="Group_9" data-name="Group 9" transform="translate(33.64 42.67)" opacity="0.149">
              <path id="Combined_Shape" data-name="Combined Shape" d="M51.36,51.361H44V44H36.637v-7.36H29.275V29.276h7.362v7.362H44V44H51.36V51.36Zm-14.723,0H29.275V44h7.362V51.36Zm-14.723,0H14.552V44H7.362l7.19-7.19V44h7.362V51.36Zm-14.723,0H0l7.191-7.191v7.19ZM29.275,44H21.914V36.638h7.361V44Zm-7.361-7.361H14.724l7.191-7.19v7.19Zm29.446,0H44V29.277H36.637v-7.36h-7.19l7.19-7.19v7.19H44v7.361H51.36v7.361ZM29.275,29.277h-7.19l7.19-7.189v7.189ZM51.36,21.915H44V14.554H36.809L44,7.364v7.189H51.36v7.361Zm0-14.723H44.17L51.36,0V7.191Z" transform="translate(0 0)" fill="#d8d8d8"/>
            </g>
            <g id="Group_9-2" data-name="Group 9" transform="translate(42.329 51.361) rotate(180)" opacity="0.155">
              <path id="Combined_Shape-2" data-name="Combined Shape" d="M51.36,51.361H44V44H36.637v-7.36H29.275V29.276h7.362v7.362H44V44H51.36V51.36Zm-14.723,0H29.275V44h7.362V51.36Zm-14.723,0H14.552V44H7.362l7.19-7.19V44h7.362V51.36Zm-14.723,0H0l7.191-7.191v7.19ZM29.275,44H21.914V36.638h7.361V44Zm-7.361-7.361H14.724l7.191-7.19v7.19Zm29.446,0H44V29.277H36.637v-7.36h-7.19l7.19-7.19v7.19H44v7.361H51.36v7.361ZM29.275,29.277h-7.19l7.19-7.189v7.189ZM51.36,21.915H44V14.554H36.809L44,7.364v7.189H51.36v7.361Zm0-14.723H44.17L51.36,0V7.191Z" transform="translate(0 0)" fill="#d8d8d8"/>
            </g>
            <g id="Group_10" data-name="Group 10" transform="translate(-45.253 -6.155)">
              <path id="Combined_Shape-3" data-name="Combined Shape" d="M39.447,57.475h0l-.092-.091,8.669-8.669L44.36,45.049,89.409,0l3.757,3.756Zm1.232-16.107h0l-3.756-3.755L74.533,0l3.758,3.756ZM33.24,33.931h0l-3.755-3.755L59.658,0l3.756,3.756L33.241,33.93Zm-7.171-7.173h0L22.313,23l23-23,3.757,3.756-23,23Zm-7.438-7.438h0l-3.756-3.756L30.44,0,34.2,3.756,18.632,19.32Zm-7.438-7.438h0L7.438,8.127,15.566,0l3.756,3.756-8.126,8.127ZM3.757,4.446h0L0,.689.689,0,4.447,3.756l-.689.689Z" transform="translate(82.344 0)" fill="#d8d8d8" opacity="0.153"/>
              <path id="Combined_Shape-4" data-name="Combined Shape" d="M39.447,57.475h0l-.092-.091,8.669-8.669L44.36,45.049,89.409,0l3.757,3.756Zm1.232-16.107h0l-3.756-3.755L74.533,0l3.758,3.756ZM33.24,33.931h0l-3.755-3.755L59.658,0l3.756,3.756L33.241,33.93Zm-7.171-7.173h0L22.313,23l23-23,3.757,3.756-23,23Zm-7.438-7.438h0l-3.756-3.756L30.44,0,34.2,3.756,18.632,19.32Zm-7.438-7.438h0L7.438,8.127,15.566,0l3.756,3.756-8.126,8.127ZM3.757,4.446h0L0,.689.689,0,4.447,3.756l-.689.689Z" transform="translate(93.165 97.318) rotate(180)" fill="#d8d8d8" opacity="0.151"/>
            </g>
          </g>
        </g>
        <g id="Image-3" data-name="Image" transform="translate(0 -190.4)">
          <circle id="Mask-9" data-name="Mask" cx="42.5" cy="42.5" r="42.5" fill="url(#linear-gradient-2)"/>
        </g>
      </g>
    </g>
  </g>
</svg>
