<svg xmlns="http://www.w3.org/2000/svg" xmlns:xlink="http://www.w3.org/1999/xlink" width="85" height="85" viewBox="0 0 85 85">
  <defs>
    <linearGradient id="linear-gradient" x1="0.5" x2="0.5" y2="1" gradientUnits="objectBoundingBox">
      <stop offset="0" stop-color="#f4915c"/>
      <stop offset="1" stop-color="#8a3736"/>
    </linearGradient>
    <linearGradient id="linear-gradient-2" x1="0.5" x2="0.5" y2="1" gradientUnits="objectBoundingBox">
      <stop offset="0" stop-color="#90fd85"/>
      <stop offset="1" stop-color="#558a18"/>
    </linearGradient>
    <clipPath id="clip-path">
      <circle id="Mask" cx="42.5" cy="42.5" r="42.5" transform="translate(0 0)" fill="url(#linear-gradient)"/>
    </clipPath>
    <clipPath id="clip-path-2">
      <circle id="Mask-2" data-name="Mask" cx="42" cy="42" r="42" fill="url(#linear-gradient-2)"/>
    </clipPath>
    <clipPath id="clip-path-3">
      <circle id="Mask-3" data-name="Mask" cx="42.5" cy="42.5" r="42.5" fill="url(#linear-gradient)"/>
    </clipPath>
    <clipPath id="clip-path-4">
      <rect id="Mask-4" data-name="Mask" width="85" height="85" rx="1.25" fill="none" stroke="#7e94a1" stroke-miterlimit="10" stroke-width="0.5" opacity="0.204"/>
    </clipPath>
    <linearGradient id="linear-gradient-7" y1="1.027" x2="0.5" y2="0.5" gradientUnits="objectBoundingBox">
      <stop offset="0" stop-color="#eee"/>
      <stop offset="1" stop-color="#fff" stop-opacity="0"/>
    </linearGradient>
  </defs>
  <g id="productivity" transform="translate(-0.094 -0.4)">
    <g id="topic" transform="translate(0.094 0.4)" clip-path="url(#clip-path)">
      <g id="Image" transform="translate(0 -192.262)">
        <circle id="Mask-6" data-name="Mask" cx="42" cy="42" r="42" fill="url(#linear-gradient-2)"/>
      </g>
    </g>
    <g id="topic-2" data-name="topic" transform="translate(0.094 0.4)">
      <circle id="Mask-7" data-name="Mask" cx="42.5" cy="42.5" r="42.5" transform="translate(0 0)" fill="url(#linear-gradient)"/>
      <g id="topic-3" data-name="topic" transform="translate(0 0)" clip-path="url(#clip-path-3)">
        <g id="Clean_Copy_12" data-name="Clean Copy 12" transform="translate(0 0)">
          <g id="Pattern_Copy_36" data-name="Pattern Copy 36">
            <g id="Mask-8" data-name="Mask" fill="none" stroke="#7e94a1" stroke-miterlimit="10" stroke-width="0.5" opacity="0.204">
              <rect width="85" height="85" rx="1.25" stroke="none"/>
              <rect x="0.25" y="0.25" width="84.5" height="84.5" rx="1" fill="none"/>
            </g>
          </g>
          <path id="Rectangle" d="M0,0,37.188,37.188H0Z" transform="translate(69.063 53.125) rotate(180)" opacity="0.312" fill="url(#linear-gradient-7)"/>
          <path id="Rectangle-2" data-name="Rectangle" d="M0,0,37.188,37.188H0Z" transform="translate(79.688 42.5) rotate(180)" opacity="0.334" fill="url(#linear-gradient-7)"/>
          <path id="Rectangle-3" data-name="Rectangle" d="M0,0,37.188,37.188H0Z" transform="translate(5.313 42.5)" opacity="0.149" fill="url(#linear-gradient-7)"/>
          <path id="Rectangle-4" data-name="Rectangle" d="M0,0,37.188,37.188H0Z" transform="translate(15.938 31.875)" opacity="0.304" fill="url(#linear-gradient-7)"/>
        </g>
        <g id="Image-3" data-name="Image" transform="translate(0 -190.4)">
          <circle id="Mask-9" data-name="Mask" cx="42.5" cy="42.5" r="42.5" fill="url(#linear-gradient-2)"/>
        </g>
      </g>
    </g>
  </g>
</svg>
