<svg xmlns="http://www.w3.org/2000/svg" xmlns:xlink="http://www.w3.org/1999/xlink" width="85" height="85" viewBox="0 0 85 85">
  <defs>
    <linearGradient id="linear-gradient" x1="0.5" x2="0.5" y2="1" gradientUnits="objectBoundingBox">
      <stop offset="0" stop-color="#ff8047"/>
      <stop offset="1" stop-color="#ce2727"/>
    </linearGradient>
    <linearGradient id="linear-gradient-2" x1="0.5" x2="0.5" y2="1" gradientUnits="objectBoundingBox">
      <stop offset="0" stop-color="#90fd85"/>
      <stop offset="1" stop-color="#558a18"/>
    </linearGradient>
    <clipPath id="clip-path">
      <circle id="Mask" cx="42.5" cy="42.5" r="42.5" transform="translate(0 0)" fill="url(#linear-gradient)"/>
    </clipPath>
    <clipPath id="clip-path-2">
      <circle id="Mask-2" data-name="Mask" cx="42" cy="42" r="42" fill="url(#linear-gradient-2)"/>
    </clipPath>
    <clipPath id="clip-path-3">
      <circle id="Mask-3" data-name="Mask" cx="42.5" cy="42.5" r="42.5" fill="url(#linear-gradient)"/>
    </clipPath>
    <clipPath id="clip-path-4">
      <rect id="Mask-4" data-name="Mask" width="85" height="85" rx="1.25" fill="none" stroke="#7e94a1" stroke-miterlimit="10" stroke-width="0.5" opacity="0.204"/>
    </clipPath>
    <linearGradient id="linear-gradient-7" x1="0.5" x2="0.5" y2="0.752" gradientUnits="objectBoundingBox">
      <stop offset="0" stop-color="#eee"/>
      <stop offset="1" stop-color="#fff" stop-opacity="0"/>
    </linearGradient>
    <linearGradient id="linear-gradient-9" y1="1" y2="0.248" xlink:href="#linear-gradient-7"/>
    <linearGradient id="linear-gradient-10" x1="0.5" x2="0.5" y2="0.752" gradientUnits="objectBoundingBox">
      <stop offset="0" stop-color="#fff"/>
      <stop offset="1" stop-color="#fff" stop-opacity="0"/>
    </linearGradient>
    <linearGradient id="linear-gradient-12" y1="1" y2="0.248" xlink:href="#linear-gradient-10"/>
  </defs>
  <g id="professional_development" data-name="professional development" transform="translate(0.026 -0.4)">
    <g id="topic" transform="translate(-0.026 0.4)" clip-path="url(#clip-path)">
      <g id="Image" transform="translate(0 -192.262)">
        <circle id="Mask-6" data-name="Mask" cx="42" cy="42" r="42" fill="url(#linear-gradient-2)"/>
      </g>
    </g>
    <g id="topic-2" data-name="topic" transform="translate(-0.026 0.4)">
      <circle id="Mask-7" data-name="Mask" cx="42.5" cy="42.5" r="42.5" transform="translate(0 0)" fill="url(#linear-gradient)"/>
      <g id="topic-3" data-name="topic" transform="translate(0 0)" clip-path="url(#clip-path-3)">
        <g id="Clean_Copy_11" data-name="Clean Copy 11" transform="translate(0 0)">
          <g id="Pattern_Copy_37" data-name="Pattern Copy 37">
            <g id="Mask-8" data-name="Mask" fill="none" stroke="#7e94a1" stroke-miterlimit="10" stroke-width="0.5" opacity="0.204">
              <rect width="85" height="85" rx="1.25" stroke="none"/>
              <rect x="0.25" y="0.25" width="84.5" height="84.5" rx="1" fill="none"/>
            </g>
          </g>
          <g id="Pattern" transform="translate(15.406 17.531)" opacity="0.214">
            <path id="Combined_Shape" data-name="Combined Shape" d="M6.907,50.468H5.937A5.944,5.944,0,0,1,0,44.531V5.937A5.944,5.944,0,0,1,5.937,0h.969Z" transform="translate(0)" fill="#d8d8d8"/>
            <path id="Combined_Shape-2" data-name="Combined Shape" d="M6.907,50.468H5.937A5.944,5.944,0,0,1,0,44.531V5.937A5.944,5.944,0,0,1,5.937,0h.969Z" transform="translate(13.281)" fill="#d8d8d8"/>
            <path id="Combined_Shape-3" data-name="Combined Shape" d="M13.812,50.468h-.968a5.944,5.944,0,0,1-5.937-5.937V5.937A5.944,5.944,0,0,1,12.844,0h.968Z" transform="translate(34)" fill="#d8d8d8"/>
            <path id="Combined_Shape-4" data-name="Combined Shape" d="M6.907,50.468H5.937A5.944,5.944,0,0,1,0,44.531V5.937A5.944,5.944,0,0,1,5.937,0h.969Z" transform="translate(13.813 50.469) rotate(180)" fill="url(#linear-gradient-7)"/>
            <path id="Combined_Shape-5" data-name="Combined Shape" d="M13.812,50.468h-.968a5.944,5.944,0,0,1-5.937-5.937V5.937A5.944,5.944,0,0,1,12.844,0h.968Z" transform="translate(20.187)" fill="url(#linear-gradient-7)"/>
            <path id="Combined_Shape-6" data-name="Combined Shape" d="M5.937,100.938A5.944,5.944,0,0,1,0,95V56.406a5.944,5.944,0,0,1,5.937-5.937h.969v50.469H5.937Z" transform="translate(27.094 0)" fill="url(#linear-gradient-9)"/>
            <path id="Combined_Shape-7" data-name="Combined Shape" d="M6.907,50.468H5.937A5.944,5.944,0,0,1,0,44.531V5.937A5.944,5.944,0,0,1,5.937,0h.969Z" transform="translate(0)" fill="#fff"/>
            <path id="Combined_Shape-8" data-name="Combined Shape" d="M6.907,50.468H5.937A5.944,5.944,0,0,1,0,44.531V5.937A5.944,5.944,0,0,1,5.937,0h.969Z" transform="translate(13.281)" fill="#fff"/>
            <path id="Combined_Shape-9" data-name="Combined Shape" d="M13.812,50.468h-.968a5.944,5.944,0,0,1-5.937-5.937V5.937A5.944,5.944,0,0,1,12.844,0h.968Z" transform="translate(34)" fill="#fff"/>
            <path id="Combined_Shape-10" data-name="Combined Shape" d="M13.812,50.468h-.968a5.944,5.944,0,0,1-5.937-5.937V5.937A5.944,5.944,0,0,1,12.844,0h.968Z" transform="translate(47.281)" fill="#fff"/>
            <path id="Combined_Shape-11" data-name="Combined Shape" d="M6.907,50.468H5.937A5.944,5.944,0,0,1,0,44.531V5.937A5.944,5.944,0,0,1,5.937,0h.969Z" transform="translate(13.813 50.469) rotate(180)" fill="url(#linear-gradient-10)"/>
            <path id="Combined_Shape-12" data-name="Combined Shape" d="M13.812,50.468h-.968a5.944,5.944,0,0,1-5.937-5.937V5.937A5.944,5.944,0,0,1,12.844,0h.968Z" transform="translate(20.187)" fill="url(#linear-gradient-10)"/>
            <path id="Combined_Shape-13" data-name="Combined Shape" d="M5.937,100.938A5.944,5.944,0,0,1,0,95V56.406a5.944,5.944,0,0,1,5.937-5.937h.969v50.469H5.937Z" transform="translate(27.094 0)" fill="url(#linear-gradient-12)"/>
            <path id="Combined_Shape-14" data-name="Combined Shape" d="M6.907,50.468H5.937A5.944,5.944,0,0,1,0,44.531V5.937A5.944,5.944,0,0,1,5.937,0h.969Z" transform="translate(40.375)" fill="url(#linear-gradient-10)"/>
          </g>
        </g>
        <g id="Image-3" data-name="Image" transform="translate(0 -190.4)">
          <circle id="Mask-9" data-name="Mask" cx="42.5" cy="42.5" r="42.5" fill="url(#linear-gradient-2)"/>
        </g>
      </g>
    </g>
  </g>
</svg>
