<svg xmlns="http://www.w3.org/2000/svg" xmlns:xlink="http://www.w3.org/1999/xlink" width="85" height="85" viewBox="0 0 85 85">
  <defs>
    <linearGradient id="linear-gradient" x1="0.5" x2="0.5" y2="1" gradientUnits="objectBoundingBox">
      <stop offset="0" stop-color="#fd749a"/>
      <stop offset="1" stop-color="#ad2059"/>
    </linearGradient>
    <linearGradient id="linear-gradient-2" x1="0.5" x2="0.5" y2="1" gradientUnits="objectBoundingBox">
      <stop offset="0" stop-color="#90fd85"/>
      <stop offset="1" stop-color="#558a18"/>
    </linearGradient>
    <clipPath id="clip-path">
      <circle id="Mask" cx="42.5" cy="42.5" r="42.5" transform="translate(0.094 0.099)" fill="url(#linear-gradient)"/>
    </clipPath>
    <clipPath id="clip-path-2">
      <circle id="Mask-2" data-name="Mask" cx="42.5" cy="42.5" r="42.5" transform="translate(0.094 0.158)" fill="url(#linear-gradient-2)"/>
    </clipPath>
    <clipPath id="clip-path-3">
      <circle id="Mask-3" data-name="Mask" cx="42.5" cy="42.5" r="42.5" fill="url(#linear-gradient)"/>
    </clipPath>
    <clipPath id="clip-path-4">
      <rect id="Mask-4" data-name="Mask" width="85" height="85" rx="1.25" fill="none" stroke="#7e94a1" stroke-miterlimit="10" stroke-width="0.5" opacity="0.204"/>
    </clipPath>
  </defs>
  <g id="sales" transform="translate(-0.094 -0.099)">
    <g id="topic" transform="translate(0 0)" clip-path="url(#clip-path)">
      <g id="Image" transform="translate(0 -190.059)">
        <circle id="Mask-6" data-name="Mask" cx="42.5" cy="42.5" r="42.5" transform="translate(0.094 0.158)" fill="url(#linear-gradient-2)"/>
      </g>
    </g>
    <g id="topic-2" data-name="topic" transform="translate(0.094 0.099)">
      <circle id="Mask-7" data-name="Mask" cx="42.5" cy="42.5" r="42.5" transform="translate(0 0)" fill="url(#linear-gradient)"/>
      <g id="topic-3" data-name="topic" transform="translate(0 0)" clip-path="url(#clip-path-3)">
        <g id="Clean_Copy_9" data-name="Clean Copy 9" transform="translate(0 0)">
          <g id="Pattern_Copy_39" data-name="Pattern Copy 39">
            <g id="Mask-8" data-name="Mask" fill="none" stroke="#7e94a1" stroke-miterlimit="10" stroke-width="0.5" opacity="0.204">
              <rect width="85" height="85" rx="1.25" stroke="none"/>
              <rect x="0.25" y="0.25" width="84.5" height="84.5" rx="1" fill="none"/>
            </g>
          </g>
          <g id="Pattern" transform="translate(0.217 0.217)">
            <path id="Rectangle" d="M14.344,0,0,14.344H14.344Z" transform="translate(53.174 51.613) rotate(-135)" fill="#fff" opacity="0.284"/>
            <path id="Rectangle-2" data-name="Rectangle" d="M0,0,14.344,14.344H0Z" transform="translate(43.031 62.736) rotate(-45)" fill="#fff" opacity="0.076"/>
            <path id="Rectangle-3" data-name="Rectangle" d="M0,0,14.344,14.344H0Z" transform="translate(53.125 72.83) rotate(-45)" fill="#fff" opacity="0.255"/>
            <path id="Rectangle-4" data-name="Rectangle" d="M14.344,0,0,14.344H14.344Z" transform="translate(10.143 62.254) rotate(-135)" fill="#fff" opacity="0.237"/>
            <path id="Rectangle-5" data-name="Rectangle" d="M14.344,0,0,14.344H14.344Z" transform="translate(20.236 72.348) rotate(-135)" fill="#fff" opacity="0.074"/>
            <path id="Rectangle-6" data-name="Rectangle" d="M14.344,0,0,14.344H14.344Z" transform="translate(74.424 51.613) rotate(-135)" fill="#fff" opacity="0.093"/>
            <path id="Rectangle-7" data-name="Rectangle" d="M0,0,14.344,14.344H0Z" transform="translate(64.281 20.768) rotate(-45)" fill="#fff" opacity="0.301"/>
            <path id="Rectangle-8" data-name="Rectangle" d="M0,0,14.344,14.344H0Z" transform="translate(43.031 20.768) rotate(-45)" fill="#fff" opacity="0.05"/>
            <path id="Rectangle-9" data-name="Rectangle" d="M0,14.344,14.344,0H0Z" transform="translate(73.941 10.143) rotate(135)" fill="#fff" opacity="0.102"/>
            <path id="Rectangle-10" data-name="Rectangle" d="M0,14.344,14.344,0H0Z" transform="translate(73.941 52.111) rotate(135)" fill="#fff" opacity="0.361"/>
            <path id="Rectangle-11" data-name="Rectangle" d="M0,14.344,14.344,0H0Z" transform="translate(20.285 72.83) rotate(135)" fill="#fff" opacity="0.116"/>
            <path id="Rectangle-12" data-name="Rectangle" d="M0,0,14.344,14.344H0Z" transform="translate(10.143 62.688) rotate(45)" fill="#fff" opacity="0.213"/>
          </g>
        </g>
        <g id="Image-3" data-name="Image" transform="translate(0 -190.4)">
          <circle id="Mask-9" data-name="Mask" cx="42.5" cy="42.5" r="42.5" fill="url(#linear-gradient-2)"/>
        </g>
      </g>
    </g>
  </g>
</svg>
